<?xml version="1.0" encoding="utf-8" standalone="no"?>
<!DOCTYPE svg PUBLIC "-//W3C//DTD SVG 1.1//EN"
  "http://www.w3.org/Graphics/SVG/1.1/DTD/svg11.dtd">
<svg xmlns:xlink="http://www.w3.org/1999/xlink" width="435.6pt" height="218.862103pt" viewBox="0 0 435.6 218.862103" xmlns="http://www.w3.org/2000/svg" version="1.1">
 <metadata>
  <rdf:RDF xmlns:dc="http://purl.org/dc/elements/1.1/" xmlns:cc="http://creativecommons.org/ns#" xmlns:rdf="http://www.w3.org/1999/02/22-rdf-syntax-ns#">
   <cc:Work>
    <dc:type rdf:resource="http://purl.org/dc/dcmitype/StillImage"/>
    <dc:date>2026-09-04T04:47:45.251976</dc:date>
    <dc:format>image/svg+xml</dc:format>
    <dc:creator>
     <cc:Agent>
      <dc:title>Matplotlib v3.9.2, https://matplotlib.org/</dc:title>
     </cc:Agent>
    </dc:creator>
   </cc:Work>
  </rdf:RDF>
 </metadata>
 <defs>
  <style type="text/css">*{stroke-linejoin: round; stroke-linecap: butt}</style>
 </defs>
 <g id="figure_1">
  <g id="patch_1">
   <path d="M 0 218.862103 
L 435.6 218.862103 
L 435.6 0 
L 0 0 
z
" style="fill: #ffffff"/>
  </g>
  <g id="axes_1">
   <g id="patch_2">
    <path d="M 65.7 173.575962 
L 428.4 173.575962 
L 428.4 29.431962 
L 65.7 29.431962 
z
" style="fill: #ffffff"/>
   </g>
   <g id="patch_3">
    <path d="M 65.7 139.887135 
L 428.4 139.887135 
L 428.4 112.733572 
L 65.7 112.733572 
z
" clip-path="url(#p259fad2c13)" style="fill: #e34948; opacity: 0.15"/>
   </g>
   <g id="matplotlib.axis_1">
    <g id="xtick_1">
     <g id="line2d_1">
      <path d="M 82.186364 173.575962 
L 82.186364 29.431962 
" clip-path="url(#p259fad2c13)" style="fill: none; stroke: #e6e5e1; stroke-width: 0.6; stroke-linecap: square"/>
     </g>
     <g id="line2d_2">
      <defs>
       <path id="m7b09d21311" d="M 0 0 
L 0 3.5 
" style="stroke: #52514e; stroke-width: 0.8"/>
      </defs>
      <g>
       <use xlink:href="#m7b09d21311" x="82.186364" y="173.575962" style="fill: #52514e; stroke: #52514e; stroke-width: 0.8"/>
      </g>
     </g>
     <g id="text_1">
      <!-- 2017-18 -->
      <g style="fill: #52514e" transform="translate(67.562379 185.894869) scale(0.07 -0.07)">
       <defs>
        <path id="DejaVuSans-32" d="M 1228 531 
L 3431 531 
L 3431 0 
L 469 0 
L 469 531 
Q 828 903 1448 1529 
Q 2069 2156 2228 2338 
Q 2531 2678 2651 2914 
Q 2772 3150 2772 3378 
Q 2772 3750 2511 3984 
Q 2250 4219 1831 4219 
Q 1534 4219 1204 4116 
Q 875 4013 500 3803 
L 500 4441 
Q 881 4594 1212 4672 
Q 1544 4750 1819 4750 
Q 2544 4750 2975 4387 
Q 3406 4025 3406 3419 
Q 3406 3131 3298 2873 
Q 3191 2616 2906 2266 
Q 2828 2175 2409 1742 
Q 1991 1309 1228 531 
z
" transform="scale(0.015625)"/>
        <path id="DejaVuSans-30" d="M 2034 4250 
Q 1547 4250 1301 3770 
Q 1056 3291 1056 2328 
Q 1056 1369 1301 889 
Q 1547 409 2034 409 
Q 2525 409 2770 889 
Q 3016 1369 3016 2328 
Q 3016 3291 2770 3770 
Q 2525 4250 2034 4250 
z
M 2034 4750 
Q 2819 4750 3233 4129 
Q 3647 3509 3647 2328 
Q 3647 1150 3233 529 
Q 2819 -91 2034 -91 
Q 1250 -91 836 529 
Q 422 1150 422 2328 
Q 422 3509 836 4129 
Q 1250 4750 2034 4750 
z
" transform="scale(0.015625)"/>
        <path id="DejaVuSans-31" d="M 794 531 
L 1825 531 
L 1825 4091 
L 703 3866 
L 703 4441 
L 1819 4666 
L 2450 4666 
L 2450 531 
L 3481 531 
L 3481 0 
L 794 0 
L 794 531 
z
" transform="scale(0.015625)"/>
        <path id="DejaVuSans-37" d="M 525 4666 
L 3525 4666 
L 3525 4397 
L 1831 0 
L 1172 0 
L 2766 4134 
L 525 4134 
L 525 4666 
z
" transform="scale(0.015625)"/>
        <path id="DejaVuSans-2d" d="M 313 2009 
L 1997 2009 
L 1997 1497 
L 313 1497 
L 313 2009 
z
" transform="scale(0.015625)"/>
        <path id="DejaVuSans-38" d="M 2034 2216 
Q 1584 2216 1326 1975 
Q 1069 1734 1069 1313 
Q 1069 891 1326 650 
Q 1584 409 2034 409 
Q 2484 409 2743 651 
Q 3003 894 3003 1313 
Q 3003 1734 2745 1975 
Q 2488 2216 2034 2216 
z
M 1403 2484 
Q 997 2584 770 2862 
Q 544 3141 544 3541 
Q 544 4100 942 4425 
Q 1341 4750 2034 4750 
Q 2731 4750 3128 4425 
Q 3525 4100 3525 3541 
Q 3525 3141 3298 2862 
Q 3072 2584 2669 2484 
Q 3125 2378 3379 2068 
Q 3634 1759 3634 1313 
Q 3634 634 3220 271 
Q 2806 -91 2034 -91 
Q 1263 -91 848 271 
Q 434 634 434 1313 
Q 434 1759 690 2068 
Q 947 2378 1403 2484 
z
M 1172 3481 
Q 1172 3119 1398 2916 
Q 1625 2713 2034 2713 
Q 2441 2713 2670 2916 
Q 2900 3119 2900 3481 
Q 2900 3844 2670 4047 
Q 2441 4250 2034 4250 
Q 1625 4250 1398 4047 
Q 1172 3844 1172 3481 
z
" transform="scale(0.015625)"/>
       </defs>
       <use xlink:href="#DejaVuSans-32"/>
       <use xlink:href="#DejaVuSans-30" x="63.623047"/>
       <use xlink:href="#DejaVuSans-31" x="127.246094"/>
       <use xlink:href="#DejaVuSans-37" x="190.869141"/>
       <use xlink:href="#DejaVuSans-2d" x="254.492188"/>
       <use xlink:href="#DejaVuSans-31" x="290.576172"/>
       <use xlink:href="#DejaVuSans-38" x="354.199219"/>
      </g>
     </g>
    </g>
    <g id="xtick_2">
     <g id="line2d_3">
      <path d="M 123.402273 173.575962 
L 123.402273 29.431962 
" clip-path="url(#p259fad2c13)" style="fill: none; stroke: #e6e5e1; stroke-width: 0.6; stroke-linecap: square"/>
     </g>
     <g id="line2d_4">
      <g>
       <use xlink:href="#m7b09d21311" x="123.402273" y="173.575962" style="fill: #52514e; stroke: #52514e; stroke-width: 0.8"/>
      </g>
     </g>
     <g id="text_2">
      <!-- 2018-19 -->
      <g style="fill: #52514e" transform="translate(108.778288 185.894869) scale(0.07 -0.07)">
       <defs>
        <path id="DejaVuSans-39" d="M 703 97 
L 703 672 
Q 941 559 1184 500 
Q 1428 441 1663 441 
Q 2288 441 2617 861 
Q 2947 1281 2994 2138 
Q 2813 1869 2534 1725 
Q 2256 1581 1919 1581 
Q 1219 1581 811 2004 
Q 403 2428 403 3163 
Q 403 3881 828 4315 
Q 1253 4750 1959 4750 
Q 2769 4750 3195 4129 
Q 3622 3509 3622 2328 
Q 3622 1225 3098 567 
Q 2575 -91 1691 -91 
Q 1453 -91 1209 -44 
Q 966 3 703 97 
z
M 1959 2075 
Q 2384 2075 2632 2365 
Q 2881 2656 2881 3163 
Q 2881 3666 2632 3958 
Q 2384 4250 1959 4250 
Q 1534 4250 1286 3958 
Q 1038 3666 1038 3163 
Q 1038 2656 1286 2365 
Q 1534 2075 1959 2075 
z
" transform="scale(0.015625)"/>
       </defs>
       <use xlink:href="#DejaVuSans-32"/>
       <use xlink:href="#DejaVuSans-30" x="63.623047"/>
       <use xlink:href="#DejaVuSans-31" x="127.246094"/>
       <use xlink:href="#DejaVuSans-38" x="190.869141"/>
       <use xlink:href="#DejaVuSans-2d" x="254.492188"/>
       <use xlink:href="#DejaVuSans-31" x="290.576172"/>
       <use xlink:href="#DejaVuSans-39" x="354.199219"/>
      </g>
     </g>
    </g>
    <g id="xtick_3">
     <g id="line2d_5">
      <path d="M 164.618182 173.575962 
L 164.618182 29.431962 
" clip-path="url(#p259fad2c13)" style="fill: none; stroke: #e6e5e1; stroke-width: 0.6; stroke-linecap: square"/>
     </g>
     <g id="line2d_6">
      <g>
       <use xlink:href="#m7b09d21311" x="164.618182" y="173.575962" style="fill: #52514e; stroke: #52514e; stroke-width: 0.8"/>
      </g>
     </g>
     <g id="text_3">
      <!-- 2019-20 -->
      <g style="fill: #52514e" transform="translate(149.994197 185.894869) scale(0.07 -0.07)">
       <use xlink:href="#DejaVuSans-32"/>
       <use xlink:href="#DejaVuSans-30" x="63.623047"/>
       <use xlink:href="#DejaVuSans-31" x="127.246094"/>
       <use xlink:href="#DejaVuSans-39" x="190.869141"/>
       <use xlink:href="#DejaVuSans-2d" x="254.492188"/>
       <use xlink:href="#DejaVuSans-32" x="290.576172"/>
       <use xlink:href="#DejaVuSans-30" x="354.199219"/>
      </g>
     </g>
    </g>
    <g id="xtick_4">
     <g id="line2d_7">
      <path d="M 205.834091 173.575962 
L 205.834091 29.431962 
" clip-path="url(#p259fad2c13)" style="fill: none; stroke: #e6e5e1; stroke-width: 0.6; stroke-linecap: square"/>
     </g>
     <g id="line2d_8">
      <g>
       <use xlink:href="#m7b09d21311" x="205.834091" y="173.575962" style="fill: #52514e; stroke: #52514e; stroke-width: 0.8"/>
      </g>
     </g>
     <g id="text_4">
      <!-- 2020-21 -->
      <g style="fill: #52514e" transform="translate(191.210107 185.894869) scale(0.07 -0.07)">
       <use xlink:href="#DejaVuSans-32"/>
       <use xlink:href="#DejaVuSans-30" x="63.623047"/>
       <use xlink:href="#DejaVuSans-32" x="127.246094"/>
       <use xlink:href="#DejaVuSans-30" x="190.869141"/>
       <use xlink:href="#DejaVuSans-2d" x="254.492188"/>
       <use xlink:href="#DejaVuSans-32" x="290.576172"/>
       <use xlink:href="#DejaVuSans-31" x="354.199219"/>
      </g>
     </g>
    </g>
    <g id="xtick_5">
     <g id="line2d_9">
      <path d="M 247.05 173.575962 
L 247.05 29.431962 
" clip-path="url(#p259fad2c13)" style="fill: none; stroke: #e6e5e1; stroke-width: 0.6; stroke-linecap: square"/>
     </g>
     <g id="line2d_10">
      <g>
       <use xlink:href="#m7b09d21311" x="247.05" y="173.575962" style="fill: #52514e; stroke: #52514e; stroke-width: 0.8"/>
      </g>
     </g>
     <g id="text_5">
      <!-- 2021-22 -->
      <g style="fill: #52514e" transform="translate(232.426016 185.894869) scale(0.07 -0.07)">
       <use xlink:href="#DejaVuSans-32"/>
       <use xlink:href="#DejaVuSans-30" x="63.623047"/>
       <use xlink:href="#DejaVuSans-32" x="127.246094"/>
       <use xlink:href="#DejaVuSans-31" x="190.869141"/>
       <use xlink:href="#DejaVuSans-2d" x="254.492188"/>
       <use xlink:href="#DejaVuSans-32" x="290.576172"/>
       <use xlink:href="#DejaVuSans-32" x="354.199219"/>
      </g>
     </g>
    </g>
    <g id="xtick_6">
     <g id="line2d_11">
      <path d="M 288.265909 173.575962 
L 288.265909 29.431962 
" clip-path="url(#p259fad2c13)" style="fill: none; stroke: #e6e5e1; stroke-width: 0.6; stroke-linecap: square"/>
     </g>
     <g id="line2d_12">
      <g>
       <use xlink:href="#m7b09d21311" x="288.265909" y="173.575962" style="fill: #52514e; stroke: #52514e; stroke-width: 0.8"/>
      </g>
     </g>
     <g id="text_6">
      <!-- 2022-23 -->
      <g style="fill: #52514e" transform="translate(273.641925 185.894869) scale(0.07 -0.07)">
       <defs>
        <path id="DejaVuSans-33" d="M 2597 2516 
Q 3050 2419 3304 2112 
Q 3559 1806 3559 1356 
Q 3559 666 3084 287 
Q 2609 -91 1734 -91 
Q 1441 -91 1130 -33 
Q 819 25 488 141 
L 488 750 
Q 750 597 1062 519 
Q 1375 441 1716 441 
Q 2309 441 2620 675 
Q 2931 909 2931 1356 
Q 2931 1769 2642 2001 
Q 2353 2234 1838 2234 
L 1294 2234 
L 1294 2753 
L 1863 2753 
Q 2328 2753 2575 2939 
Q 2822 3125 2822 3475 
Q 2822 3834 2567 4026 
Q 2313 4219 1838 4219 
Q 1578 4219 1281 4162 
Q 984 4106 628 3988 
L 628 4550 
Q 988 4650 1302 4700 
Q 1616 4750 1894 4750 
Q 2613 4750 3031 4423 
Q 3450 4097 3450 3541 
Q 3450 3153 3228 2886 
Q 3006 2619 2597 2516 
z
" transform="scale(0.015625)"/>
       </defs>
       <use xlink:href="#DejaVuSans-32"/>
       <use xlink:href="#DejaVuSans-30" x="63.623047"/>
       <use xlink:href="#DejaVuSans-32" x="127.246094"/>
       <use xlink:href="#DejaVuSans-32" x="190.869141"/>
       <use xlink:href="#DejaVuSans-2d" x="254.492188"/>
       <use xlink:href="#DejaVuSans-32" x="290.576172"/>
       <use xlink:href="#DejaVuSans-33" x="354.199219"/>
      </g>
     </g>
    </g>
    <g id="xtick_7">
     <g id="line2d_13">
      <path d="M 329.481818 173.575962 
L 329.481818 29.431962 
" clip-path="url(#p259fad2c13)" style="fill: none; stroke: #e6e5e1; stroke-width: 0.6; stroke-linecap: square"/>
     </g>
     <g id="line2d_14">
      <g>
       <use xlink:href="#m7b09d21311" x="329.481818" y="173.575962" style="fill: #52514e; stroke: #52514e; stroke-width: 0.8"/>
      </g>
     </g>
     <g id="text_7">
      <!-- 2023-24 -->
      <g style="fill: #52514e" transform="translate(314.857834 185.894869) scale(0.07 -0.07)">
       <defs>
        <path id="DejaVuSans-34" d="M 2419 4116 
L 825 1625 
L 2419 1625 
L 2419 4116 
z
M 2253 4666 
L 3047 4666 
L 3047 1625 
L 3713 1625 
L 3713 1100 
L 3047 1100 
L 3047 0 
L 2419 0 
L 2419 1100 
L 313 1100 
L 313 1709 
L 2253 4666 
z
" transform="scale(0.015625)"/>
       </defs>
       <use xlink:href="#DejaVuSans-32"/>
       <use xlink:href="#DejaVuSans-30" x="63.623047"/>
       <use xlink:href="#DejaVuSans-32" x="127.246094"/>
       <use xlink:href="#DejaVuSans-33" x="190.869141"/>
       <use xlink:href="#DejaVuSans-2d" x="254.492188"/>
       <use xlink:href="#DejaVuSans-32" x="290.576172"/>
       <use xlink:href="#DejaVuSans-34" x="354.199219"/>
      </g>
     </g>
    </g>
    <g id="xtick_8">
     <g id="line2d_15">
      <path d="M 370.697727 173.575962 
L 370.697727 29.431962 
" clip-path="url(#p259fad2c13)" style="fill: none; stroke: #e6e5e1; stroke-width: 0.6; stroke-linecap: square"/>
     </g>
     <g id="line2d_16">
      <g>
       <use xlink:href="#m7b09d21311" x="370.697727" y="173.575962" style="fill: #52514e; stroke: #52514e; stroke-width: 0.8"/>
      </g>
     </g>
     <g id="text_8">
      <!-- 2024-25 -->
      <g style="fill: #52514e" transform="translate(356.073743 185.894869) scale(0.07 -0.07)">
       <defs>
        <path id="DejaVuSans-35" d="M 691 4666 
L 3169 4666 
L 3169 4134 
L 1269 4134 
L 1269 2991 
Q 1406 3038 1543 3061 
Q 1681 3084 1819 3084 
Q 2600 3084 3056 2656 
Q 3513 2228 3513 1497 
Q 3513 744 3044 326 
Q 2575 -91 1722 -91 
Q 1428 -91 1123 -41 
Q 819 9 494 109 
L 494 744 
Q 775 591 1075 516 
Q 1375 441 1709 441 
Q 2250 441 2565 725 
Q 2881 1009 2881 1497 
Q 2881 1984 2565 2268 
Q 2250 2553 1709 2553 
Q 1456 2553 1204 2497 
Q 953 2441 691 2322 
L 691 4666 
z
" transform="scale(0.015625)"/>
       </defs>
       <use xlink:href="#DejaVuSans-32"/>
       <use xlink:href="#DejaVuSans-30" x="63.623047"/>
       <use xlink:href="#DejaVuSans-32" x="127.246094"/>
       <use xlink:href="#DejaVuSans-34" x="190.869141"/>
       <use xlink:href="#DejaVuSans-2d" x="254.492188"/>
       <use xlink:href="#DejaVuSans-32" x="290.576172"/>
       <use xlink:href="#DejaVuSans-35" x="354.199219"/>
      </g>
     </g>
    </g>
    <g id="xtick_9">
     <g id="line2d_17">
      <path d="M 411.913636 173.575962 
L 411.913636 29.431962 
" clip-path="url(#p259fad2c13)" style="fill: none; stroke: #e6e5e1; stroke-width: 0.6; stroke-linecap: square"/>
     </g>
     <g id="line2d_18">
      <g>
       <use xlink:href="#m7b09d21311" x="411.913636" y="173.575962" style="fill: #52514e; stroke: #52514e; stroke-width: 0.8"/>
      </g>
     </g>
     <g id="text_9">
      <!-- 2025-26 -->
      <g style="fill: #52514e" transform="translate(397.289652 185.894869) scale(0.07 -0.07)">
       <defs>
        <path id="DejaVuSans-36" d="M 2113 2584 
Q 1688 2584 1439 2293 
Q 1191 2003 1191 1497 
Q 1191 994 1439 701 
Q 1688 409 2113 409 
Q 2538 409 2786 701 
Q 3034 994 3034 1497 
Q 3034 2003 2786 2293 
Q 2538 2584 2113 2584 
z
M 3366 4563 
L 3366 3988 
Q 3128 4100 2886 4159 
Q 2644 4219 2406 4219 
Q 1781 4219 1451 3797 
Q 1122 3375 1075 2522 
Q 1259 2794 1537 2939 
Q 1816 3084 2150 3084 
Q 2853 3084 3261 2657 
Q 3669 2231 3669 1497 
Q 3669 778 3244 343 
Q 2819 -91 2113 -91 
Q 1303 -91 875 529 
Q 447 1150 447 2328 
Q 447 3434 972 4092 
Q 1497 4750 2381 4750 
Q 2619 4750 2861 4703 
Q 3103 4656 3366 4563 
z
" transform="scale(0.015625)"/>
       </defs>
       <use xlink:href="#DejaVuSans-32"/>
       <use xlink:href="#DejaVuSans-30" x="63.623047"/>
       <use xlink:href="#DejaVuSans-32" x="127.246094"/>
       <use xlink:href="#DejaVuSans-35" x="190.869141"/>
       <use xlink:href="#DejaVuSans-2d" x="254.492188"/>
       <use xlink:href="#DejaVuSans-32" x="290.576172"/>
       <use xlink:href="#DejaVuSans-36" x="354.199219"/>
      </g>
     </g>
    </g>
   </g>
   <g id="matplotlib.axis_2">
    <g id="ytick_1">
     <g id="line2d_19">
      <path d="M 65.7 173.575963 
L 428.4 173.575963 
" clip-path="url(#p259fad2c13)" style="fill: none; stroke: #e6e5e1; stroke-width: 0.6; stroke-linecap: square"/>
     </g>
     <g id="line2d_20">
      <defs>
       <path id="m6e471d21ad" d="M 0 0 
L -3.5 0 
" style="stroke: #52514e; stroke-width: 0.8"/>
      </defs>
      <g>
       <use xlink:href="#m6e471d21ad" x="65.7" y="173.575963" style="fill: #52514e; stroke: #52514e; stroke-width: 0.8"/>
      </g>
     </g>
     <g id="text_10">
      <!-- 40 -->
      <g style="fill: #52514e" transform="translate(47.88375 176.805298) scale(0.085 -0.085)">
       <use xlink:href="#DejaVuSans-34"/>
       <use xlink:href="#DejaVuSans-30" x="63.623047"/>
      </g>
     </g>
    </g>
    <g id="ytick_2">
     <g id="line2d_21">
      <path d="M 65.7 149.551963 
L 428.4 149.551963 
" clip-path="url(#p259fad2c13)" style="fill: none; stroke: #e6e5e1; stroke-width: 0.6; stroke-linecap: square"/>
     </g>
     <g id="line2d_22">
      <g>
       <use xlink:href="#m6e471d21ad" x="65.7" y="149.551963" style="fill: #52514e; stroke: #52514e; stroke-width: 0.8"/>
      </g>
     </g>
     <g id="text_11">
      <!-- 50 -->
      <g style="fill: #52514e" transform="translate(47.88375 152.781298) scale(0.085 -0.085)">
       <use xlink:href="#DejaVuSans-35"/>
       <use xlink:href="#DejaVuSans-30" x="63.623047"/>
      </g>
     </g>
    </g>
    <g id="ytick_3">
     <g id="line2d_23">
      <path d="M 65.7 125.527963 
L 428.4 125.527963 
" clip-path="url(#p259fad2c13)" style="fill: none; stroke: #e6e5e1; stroke-width: 0.6; stroke-linecap: square"/>
     </g>
     <g id="line2d_24">
      <g>
       <use xlink:href="#m6e471d21ad" x="65.7" y="125.527963" style="fill: #52514e; stroke: #52514e; stroke-width: 0.8"/>
      </g>
     </g>
     <g id="text_12">
      <!-- 60 -->
      <g style="fill: #52514e" transform="translate(47.88375 128.757298) scale(0.085 -0.085)">
       <use xlink:href="#DejaVuSans-36"/>
       <use xlink:href="#DejaVuSans-30" x="63.623047"/>
      </g>
     </g>
    </g>
    <g id="ytick_4">
     <g id="line2d_25">
      <path d="M 65.7 101.503963 
L 428.4 101.503963 
" clip-path="url(#p259fad2c13)" style="fill: none; stroke: #e6e5e1; stroke-width: 0.6; stroke-linecap: square"/>
     </g>
     <g id="line2d_26">
      <g>
       <use xlink:href="#m6e471d21ad" x="65.7" y="101.503963" style="fill: #52514e; stroke: #52514e; stroke-width: 0.8"/>
      </g>
     </g>
     <g id="text_13">
      <!-- 70 -->
      <g style="fill: #52514e" transform="translate(47.88375 104.733298) scale(0.085 -0.085)">
       <use xlink:href="#DejaVuSans-37"/>
       <use xlink:href="#DejaVuSans-30" x="63.623047"/>
      </g>
     </g>
    </g>
    <g id="ytick_5">
     <g id="line2d_27">
      <path d="M 65.7 77.479962 
L 428.4 77.479962 
" clip-path="url(#p259fad2c13)" style="fill: none; stroke: #e6e5e1; stroke-width: 0.6; stroke-linecap: square"/>
     </g>
     <g id="line2d_28">
      <g>
       <use xlink:href="#m6e471d21ad" x="65.7" y="77.479962" style="fill: #52514e; stroke: #52514e; stroke-width: 0.8"/>
      </g>
     </g>
     <g id="text_14">
      <!-- 80 -->
      <g style="fill: #52514e" transform="translate(47.88375 80.709298) scale(0.085 -0.085)">
       <use xlink:href="#DejaVuSans-38"/>
       <use xlink:href="#DejaVuSans-30" x="63.623047"/>
      </g>
     </g>
    </g>
    <g id="ytick_6">
     <g id="line2d_29">
      <path d="M 65.7 53.455962 
L 428.4 53.455962 
" clip-path="url(#p259fad2c13)" style="fill: none; stroke: #e6e5e1; stroke-width: 0.6; stroke-linecap: square"/>
     </g>
     <g id="line2d_30">
      <g>
       <use xlink:href="#m6e471d21ad" x="65.7" y="53.455962" style="fill: #52514e; stroke: #52514e; stroke-width: 0.8"/>
      </g>
     </g>
     <g id="text_15">
      <!-- 90 -->
      <g style="fill: #52514e" transform="translate(47.88375 56.685298) scale(0.085 -0.085)">
       <use xlink:href="#DejaVuSans-39"/>
       <use xlink:href="#DejaVuSans-30" x="63.623047"/>
      </g>
     </g>
    </g>
    <g id="ytick_7">
     <g id="line2d_31">
      <path d="M 65.7 29.431962 
L 428.4 29.431962 
" clip-path="url(#p259fad2c13)" style="fill: none; stroke: #e6e5e1; stroke-width: 0.6; stroke-linecap: square"/>
     </g>
     <g id="line2d_32">
      <g>
       <use xlink:href="#m6e471d21ad" x="65.7" y="29.431962" style="fill: #52514e; stroke: #52514e; stroke-width: 0.8"/>
      </g>
     </g>
     <g id="text_16">
      <!-- 100 -->
      <g style="fill: #52514e" transform="translate(42.475625 32.661298) scale(0.085 -0.085)">
       <use xlink:href="#DejaVuSans-31"/>
       <use xlink:href="#DejaVuSans-30" x="63.623047"/>
       <use xlink:href="#DejaVuSans-30" x="127.246094"/>
      </g>
     </g>
    </g>
    <g id="text_17">
     <!-- share of residents, % -->
     <g style="fill: #52514e" transform="translate(36.811875 143.728962) rotate(-90) scale(0.08 -0.08)">
      <defs>
       <path id="DejaVuSans-73" d="M 2834 3397 
L 2834 2853 
Q 2591 2978 2328 3040 
Q 2066 3103 1784 3103 
Q 1356 3103 1142 2972 
Q 928 2841 928 2578 
Q 928 2378 1081 2264 
Q 1234 2150 1697 2047 
L 1894 2003 
Q 2506 1872 2764 1633 
Q 3022 1394 3022 966 
Q 3022 478 2636 193 
Q 2250 -91 1575 -91 
Q 1294 -91 989 -36 
Q 684 19 347 128 
L 347 722 
Q 666 556 975 473 
Q 1284 391 1588 391 
Q 1994 391 2212 530 
Q 2431 669 2431 922 
Q 2431 1156 2273 1281 
Q 2116 1406 1581 1522 
L 1381 1569 
Q 847 1681 609 1914 
Q 372 2147 372 2553 
Q 372 3047 722 3315 
Q 1072 3584 1716 3584 
Q 2034 3584 2315 3537 
Q 2597 3491 2834 3397 
z
" transform="scale(0.015625)"/>
       <path id="DejaVuSans-68" d="M 3513 2113 
L 3513 0 
L 2938 0 
L 2938 2094 
Q 2938 2591 2744 2837 
Q 2550 3084 2163 3084 
Q 1697 3084 1428 2787 
Q 1159 2491 1159 1978 
L 1159 0 
L 581 0 
L 581 4863 
L 1159 4863 
L 1159 2956 
Q 1366 3272 1645 3428 
Q 1925 3584 2291 3584 
Q 2894 3584 3203 3211 
Q 3513 2838 3513 2113 
z
" transform="scale(0.015625)"/>
       <path id="DejaVuSans-61" d="M 2194 1759 
Q 1497 1759 1228 1600 
Q 959 1441 959 1056 
Q 959 750 1161 570 
Q 1363 391 1709 391 
Q 2188 391 2477 730 
Q 2766 1069 2766 1631 
L 2766 1759 
L 2194 1759 
z
M 3341 1997 
L 3341 0 
L 2766 0 
L 2766 531 
Q 2569 213 2275 61 
Q 1981 -91 1556 -91 
Q 1019 -91 701 211 
Q 384 513 384 1019 
Q 384 1609 779 1909 
Q 1175 2209 1959 2209 
L 2766 2209 
L 2766 2266 
Q 2766 2663 2505 2880 
Q 2244 3097 1772 3097 
Q 1472 3097 1187 3025 
Q 903 2953 641 2809 
L 641 3341 
Q 956 3463 1253 3523 
Q 1550 3584 1831 3584 
Q 2591 3584 2966 3190 
Q 3341 2797 3341 1997 
z
" transform="scale(0.015625)"/>
       <path id="DejaVuSans-72" d="M 2631 2963 
Q 2534 3019 2420 3045 
Q 2306 3072 2169 3072 
Q 1681 3072 1420 2755 
Q 1159 2438 1159 1844 
L 1159 0 
L 581 0 
L 581 3500 
L 1159 3500 
L 1159 2956 
Q 1341 3275 1631 3429 
Q 1922 3584 2338 3584 
Q 2397 3584 2469 3576 
Q 2541 3569 2628 3553 
L 2631 2963 
z
" transform="scale(0.015625)"/>
       <path id="DejaVuSans-65" d="M 3597 1894 
L 3597 1613 
L 953 1613 
Q 991 1019 1311 708 
Q 1631 397 2203 397 
Q 2534 397 2845 478 
Q 3156 559 3463 722 
L 3463 178 
Q 3153 47 2828 -22 
Q 2503 -91 2169 -91 
Q 1331 -91 842 396 
Q 353 884 353 1716 
Q 353 2575 817 3079 
Q 1281 3584 2069 3584 
Q 2775 3584 3186 3129 
Q 3597 2675 3597 1894 
z
M 3022 2063 
Q 3016 2534 2758 2815 
Q 2500 3097 2075 3097 
Q 1594 3097 1305 2825 
Q 1016 2553 972 2059 
L 3022 2063 
z
" transform="scale(0.015625)"/>
       <path id="DejaVuSans-20" transform="scale(0.015625)"/>
       <path id="DejaVuSans-6f" d="M 1959 3097 
Q 1497 3097 1228 2736 
Q 959 2375 959 1747 
Q 959 1119 1226 758 
Q 1494 397 1959 397 
Q 2419 397 2687 759 
Q 2956 1122 2956 1747 
Q 2956 2369 2687 2733 
Q 2419 3097 1959 3097 
z
M 1959 3584 
Q 2709 3584 3137 3096 
Q 3566 2609 3566 1747 
Q 3566 888 3137 398 
Q 2709 -91 1959 -91 
Q 1206 -91 779 398 
Q 353 888 353 1747 
Q 353 2609 779 3096 
Q 1206 3584 1959 3584 
z
" transform="scale(0.015625)"/>
       <path id="DejaVuSans-66" d="M 2375 4863 
L 2375 4384 
L 1825 4384 
Q 1516 4384 1395 4259 
Q 1275 4134 1275 3809 
L 1275 3500 
L 2222 3500 
L 2222 3053 
L 1275 3053 
L 1275 0 
L 697 0 
L 697 3053 
L 147 3053 
L 147 3500 
L 697 3500 
L 697 3744 
Q 697 4328 969 4595 
Q 1241 4863 1831 4863 
L 2375 4863 
z
" transform="scale(0.015625)"/>
       <path id="DejaVuSans-69" d="M 603 3500 
L 1178 3500 
L 1178 0 
L 603 0 
L 603 3500 
z
M 603 4863 
L 1178 4863 
L 1178 4134 
L 603 4134 
L 603 4863 
z
" transform="scale(0.015625)"/>
       <path id="DejaVuSans-64" d="M 2906 2969 
L 2906 4863 
L 3481 4863 
L 3481 0 
L 2906 0 
L 2906 525 
Q 2725 213 2448 61 
Q 2172 -91 1784 -91 
Q 1150 -91 751 415 
Q 353 922 353 1747 
Q 353 2572 751 3078 
Q 1150 3584 1784 3584 
Q 2172 3584 2448 3432 
Q 2725 3281 2906 2969 
z
M 947 1747 
Q 947 1113 1208 752 
Q 1469 391 1925 391 
Q 2381 391 2643 752 
Q 2906 1113 2906 1747 
Q 2906 2381 2643 2742 
Q 2381 3103 1925 3103 
Q 1469 3103 1208 2742 
Q 947 2381 947 1747 
z
" transform="scale(0.015625)"/>
       <path id="DejaVuSans-6e" d="M 3513 2113 
L 3513 0 
L 2938 0 
L 2938 2094 
Q 2938 2591 2744 2837 
Q 2550 3084 2163 3084 
Q 1697 3084 1428 2787 
Q 1159 2491 1159 1978 
L 1159 0 
L 581 0 
L 581 3500 
L 1159 3500 
L 1159 2956 
Q 1366 3272 1645 3428 
Q 1925 3584 2291 3584 
Q 2894 3584 3203 3211 
Q 3513 2838 3513 2113 
z
" transform="scale(0.015625)"/>
       <path id="DejaVuSans-74" d="M 1172 4494 
L 1172 3500 
L 2356 3500 
L 2356 3053 
L 1172 3053 
L 1172 1153 
Q 1172 725 1289 603 
Q 1406 481 1766 481 
L 2356 481 
L 2356 0 
L 1766 0 
Q 1100 0 847 248 
Q 594 497 594 1153 
L 594 3053 
L 172 3053 
L 172 3500 
L 594 3500 
L 594 4494 
L 1172 4494 
z
" transform="scale(0.015625)"/>
       <path id="DejaVuSans-2c" d="M 750 794 
L 1409 794 
L 1409 256 
L 897 -744 
L 494 -744 
L 750 256 
L 750 794 
z
" transform="scale(0.015625)"/>
       <path id="DejaVuSans-25" d="M 4653 2053 
Q 4381 2053 4226 1822 
Q 4072 1591 4072 1178 
Q 4072 772 4226 539 
Q 4381 306 4653 306 
Q 4919 306 5073 539 
Q 5228 772 5228 1178 
Q 5228 1588 5073 1820 
Q 4919 2053 4653 2053 
z
M 4653 2450 
Q 5147 2450 5437 2106 
Q 5728 1763 5728 1178 
Q 5728 594 5436 251 
Q 5144 -91 4653 -91 
Q 4153 -91 3862 251 
Q 3572 594 3572 1178 
Q 3572 1766 3864 2108 
Q 4156 2450 4653 2450 
z
M 1428 4353 
Q 1159 4353 1004 4120 
Q 850 3888 850 3481 
Q 850 3069 1003 2837 
Q 1156 2606 1428 2606 
Q 1700 2606 1854 2837 
Q 2009 3069 2009 3481 
Q 2009 3884 1853 4118 
Q 1697 4353 1428 4353 
z
M 4250 4750 
L 4750 4750 
L 1831 -91 
L 1331 -91 
L 4250 4750 
z
M 1428 4750 
Q 1922 4750 2215 4408 
Q 2509 4066 2509 3481 
Q 2509 2891 2217 2550 
Q 1925 2209 1428 2209 
Q 931 2209 642 2551 
Q 353 2894 353 3481 
Q 353 4063 643 4406 
Q 934 4750 1428 4750 
z
" transform="scale(0.015625)"/>
      </defs>
      <use xlink:href="#DejaVuSans-73"/>
      <use xlink:href="#DejaVuSans-68" x="52.099609"/>
      <use xlink:href="#DejaVuSans-61" x="115.478516"/>
      <use xlink:href="#DejaVuSans-72" x="176.757812"/>
      <use xlink:href="#DejaVuSans-65" x="215.621094"/>
      <use xlink:href="#DejaVuSans-20" x="277.144531"/>
      <use xlink:href="#DejaVuSans-6f" x="308.931641"/>
      <use xlink:href="#DejaVuSans-66" x="370.113281"/>
      <use xlink:href="#DejaVuSans-20" x="405.318359"/>
      <use xlink:href="#DejaVuSans-72" x="437.105469"/>
      <use xlink:href="#DejaVuSans-65" x="475.96875"/>
      <use xlink:href="#DejaVuSans-73" x="537.492188"/>
      <use xlink:href="#DejaVuSans-69" x="589.591797"/>
      <use xlink:href="#DejaVuSans-64" x="617.375"/>
      <use xlink:href="#DejaVuSans-65" x="680.851562"/>
      <use xlink:href="#DejaVuSans-6e" x="742.375"/>
      <use xlink:href="#DejaVuSans-74" x="805.753906"/>
      <use xlink:href="#DejaVuSans-73" x="844.962891"/>
      <use xlink:href="#DejaVuSans-2c" x="897.0625"/>
      <use xlink:href="#DejaVuSans-20" x="928.849609"/>
      <use xlink:href="#DejaVuSans-25" x="960.636719"/>
     </g>
    </g>
   </g>
   <g id="line2d_33">
    <path d="M 82.186364 62.585082 
L 123.402273 61.864362 
L 164.618182 63.065562 
L 205.834091 67.630122 
L 247.05 59.942442 
L 288.265909 65.227722 
L 329.481818 75.317802 
L 370.697727 76.038522 
L 411.913636 70.993483 
" clip-path="url(#p259fad2c13)" style="fill: none; stroke: #4a3aa7; stroke-width: 2.2; stroke-linecap: square"/>
    <defs>
     <path id="m13f4dc4efd" d="M 0 2 
C 0.530406 2 1.03916 1.789267 1.414214 1.414214 
C 1.789267 1.03916 2 0.530406 2 0 
C 2 -0.530406 1.789267 -1.03916 1.414214 -1.414214 
C 1.03916 -1.789267 0.530406 -2 0 -2 
C -0.530406 -2 -1.03916 -1.789267 -1.414214 -1.414214 
C -1.789267 -1.03916 -2 -0.530406 -2 0 
C -2 0.530406 -1.789267 1.03916 -1.414214 1.414214 
C -1.03916 1.789267 -0.530406 2 0 2 
z
" style="stroke: #4a3aa7"/>
    </defs>
    <g clip-path="url(#p259fad2c13)">
     <use xlink:href="#m13f4dc4efd" x="82.186364" y="62.585082" style="fill: #4a3aa7; stroke: #4a3aa7"/>
     <use xlink:href="#m13f4dc4efd" x="123.402273" y="61.864362" style="fill: #4a3aa7; stroke: #4a3aa7"/>
     <use xlink:href="#m13f4dc4efd" x="164.618182" y="63.065562" style="fill: #4a3aa7; stroke: #4a3aa7"/>
     <use xlink:href="#m13f4dc4efd" x="205.834091" y="67.630122" style="fill: #4a3aa7; stroke: #4a3aa7"/>
     <use xlink:href="#m13f4dc4efd" x="247.05" y="59.942442" style="fill: #4a3aa7; stroke: #4a3aa7"/>
     <use xlink:href="#m13f4dc4efd" x="288.265909" y="65.227722" style="fill: #4a3aa7; stroke: #4a3aa7"/>
     <use xlink:href="#m13f4dc4efd" x="329.481818" y="75.317802" style="fill: #4a3aa7; stroke: #4a3aa7"/>
     <use xlink:href="#m13f4dc4efd" x="370.697727" y="76.038522" style="fill: #4a3aa7; stroke: #4a3aa7"/>
     <use xlink:href="#m13f4dc4efd" x="411.913636" y="70.993483" style="fill: #4a3aa7; stroke: #4a3aa7"/>
    </g>
   </g>
   <g id="line2d_34">
    <path d="M 82.186364 67.870362 
L 123.402273 67.149642 
L 164.618182 71.714203 
L 205.834091 80.603082 
L 247.05 70.753242 
L 288.265909 74.837322 
L 329.481818 91.413882 
L 370.697727 92.855322 
L 411.913636 91.654122 
" clip-path="url(#p259fad2c13)" style="fill: none; stroke: #c9c8c3; stroke-width: 1.6; stroke-linecap: square"/>
    <defs>
     <path id="m0df9de9679" d="M 0 1.5 
C 0.397805 1.5 0.77937 1.341951 1.06066 1.06066 
C 1.341951 0.77937 1.5 0.397805 1.5 0 
C 1.5 -0.397805 1.341951 -0.77937 1.06066 -1.06066 
C 0.77937 -1.341951 0.397805 -1.5 0 -1.5 
C -0.397805 -1.5 -0.77937 -1.341951 -1.06066 -1.06066 
C -1.341951 -0.77937 -1.5 -0.397805 -1.5 0 
C -1.5 0.397805 -1.341951 0.77937 -1.06066 1.06066 
C -0.77937 1.341951 -0.397805 1.5 0 1.5 
z
" style="stroke: #c9c8c3"/>
    </defs>
    <g clip-path="url(#p259fad2c13)">
     <use xlink:href="#m0df9de9679" x="82.186364" y="67.870362" style="fill: #c9c8c3; stroke: #c9c8c3"/>
     <use xlink:href="#m0df9de9679" x="123.402273" y="67.149642" style="fill: #c9c8c3; stroke: #c9c8c3"/>
     <use xlink:href="#m0df9de9679" x="164.618182" y="71.714203" style="fill: #c9c8c3; stroke: #c9c8c3"/>
     <use xlink:href="#m0df9de9679" x="205.834091" y="80.603082" style="fill: #c9c8c3; stroke: #c9c8c3"/>
     <use xlink:href="#m0df9de9679" x="247.05" y="70.753242" style="fill: #c9c8c3; stroke: #c9c8c3"/>
     <use xlink:href="#m0df9de9679" x="288.265909" y="74.837322" style="fill: #c9c8c3; stroke: #c9c8c3"/>
     <use xlink:href="#m0df9de9679" x="329.481818" y="91.413882" style="fill: #c9c8c3; stroke: #c9c8c3"/>
     <use xlink:href="#m0df9de9679" x="370.697727" y="92.855322" style="fill: #c9c8c3; stroke: #c9c8c3"/>
     <use xlink:href="#m0df9de9679" x="411.913636" y="91.654122" style="fill: #c9c8c3; stroke: #c9c8c3"/>
    </g>
   </g>
   <g id="patch_4">
    <path d="M 65.7 173.575963 
L 65.7 29.431962 
" style="fill: none; stroke: #e6e5e1; stroke-width: 0.8; stroke-linejoin: miter; stroke-linecap: square"/>
   </g>
   <g id="patch_5">
    <path d="M 65.7 173.575962 
L 428.4 173.575962 
" style="fill: none; stroke: #e6e5e1; stroke-width: 0.8; stroke-linejoin: miter; stroke-linecap: square"/>
   </g>
   <g id="text_18">
    <!-- capture the 403–462 range requires -->
    <g style="fill: #e34948" transform="translate(84.247159 124.379472) scale(0.068 -0.068)">
     <defs>
      <path id="DejaVuSans-63" d="M 3122 3366 
L 3122 2828 
Q 2878 2963 2633 3030 
Q 2388 3097 2138 3097 
Q 1578 3097 1268 2742 
Q 959 2388 959 1747 
Q 959 1106 1268 751 
Q 1578 397 2138 397 
Q 2388 397 2633 464 
Q 2878 531 3122 666 
L 3122 134 
Q 2881 22 2623 -34 
Q 2366 -91 2075 -91 
Q 1284 -91 818 406 
Q 353 903 353 1747 
Q 353 2603 823 3093 
Q 1294 3584 2113 3584 
Q 2378 3584 2631 3529 
Q 2884 3475 3122 3366 
z
" transform="scale(0.015625)"/>
      <path id="DejaVuSans-70" d="M 1159 525 
L 1159 -1331 
L 581 -1331 
L 581 3500 
L 1159 3500 
L 1159 2969 
Q 1341 3281 1617 3432 
Q 1894 3584 2278 3584 
Q 2916 3584 3314 3078 
Q 3713 2572 3713 1747 
Q 3713 922 3314 415 
Q 2916 -91 2278 -91 
Q 1894 -91 1617 61 
Q 1341 213 1159 525 
z
M 3116 1747 
Q 3116 2381 2855 2742 
Q 2594 3103 2138 3103 
Q 1681 3103 1420 2742 
Q 1159 2381 1159 1747 
Q 1159 1113 1420 752 
Q 1681 391 2138 391 
Q 2594 391 2855 752 
Q 3116 1113 3116 1747 
z
" transform="scale(0.015625)"/>
      <path id="DejaVuSans-75" d="M 544 1381 
L 544 3500 
L 1119 3500 
L 1119 1403 
Q 1119 906 1312 657 
Q 1506 409 1894 409 
Q 2359 409 2629 706 
Q 2900 1003 2900 1516 
L 2900 3500 
L 3475 3500 
L 3475 0 
L 2900 0 
L 2900 538 
Q 2691 219 2414 64 
Q 2138 -91 1772 -91 
Q 1169 -91 856 284 
Q 544 659 544 1381 
z
M 1991 3584 
L 1991 3584 
z
" transform="scale(0.015625)"/>
      <path id="DejaVuSans-2013" d="M 313 1978 
L 2888 1978 
L 2888 1528 
L 313 1528 
L 313 1978 
z
" transform="scale(0.015625)"/>
      <path id="DejaVuSans-67" d="M 2906 1791 
Q 2906 2416 2648 2759 
Q 2391 3103 1925 3103 
Q 1463 3103 1205 2759 
Q 947 2416 947 1791 
Q 947 1169 1205 825 
Q 1463 481 1925 481 
Q 2391 481 2648 825 
Q 2906 1169 2906 1791 
z
M 3481 434 
Q 3481 -459 3084 -895 
Q 2688 -1331 1869 -1331 
Q 1566 -1331 1297 -1286 
Q 1028 -1241 775 -1147 
L 775 -588 
Q 1028 -725 1275 -790 
Q 1522 -856 1778 -856 
Q 2344 -856 2625 -561 
Q 2906 -266 2906 331 
L 2906 616 
Q 2728 306 2450 153 
Q 2172 0 1784 0 
Q 1141 0 747 490 
Q 353 981 353 1791 
Q 353 2603 747 3093 
Q 1141 3584 1784 3584 
Q 2172 3584 2450 3431 
Q 2728 3278 2906 2969 
L 2906 3500 
L 3481 3500 
L 3481 434 
z
" transform="scale(0.015625)"/>
      <path id="DejaVuSans-71" d="M 947 1747 
Q 947 1113 1208 752 
Q 1469 391 1925 391 
Q 2381 391 2643 752 
Q 2906 1113 2906 1747 
Q 2906 2381 2643 2742 
Q 2381 3103 1925 3103 
Q 1469 3103 1208 2742 
Q 947 2381 947 1747 
z
M 2906 525 
Q 2725 213 2448 61 
Q 2172 -91 1784 -91 
Q 1150 -91 751 415 
Q 353 922 353 1747 
Q 353 2572 751 3078 
Q 1150 3584 1784 3584 
Q 2172 3584 2448 3432 
Q 2725 3281 2906 2969 
L 2906 3500 
L 3481 3500 
L 3481 -1331 
L 2906 -1331 
L 2906 525 
z
" transform="scale(0.015625)"/>
     </defs>
     <use xlink:href="#DejaVuSans-63"/>
     <use xlink:href="#DejaVuSans-61" x="54.980469"/>
     <use xlink:href="#DejaVuSans-70" x="116.259766"/>
     <use xlink:href="#DejaVuSans-74" x="179.736328"/>
     <use xlink:href="#DejaVuSans-75" x="218.945312"/>
     <use xlink:href="#DejaVuSans-72" x="282.324219"/>
     <use xlink:href="#DejaVuSans-65" x="321.1875"/>
     <use xlink:href="#DejaVuSans-20" x="382.710938"/>
     <use xlink:href="#DejaVuSans-74" x="414.498047"/>
     <use xlink:href="#DejaVuSans-68" x="453.707031"/>
     <use xlink:href="#DejaVuSans-65" x="517.085938"/>
     <use xlink:href="#DejaVuSans-20" x="578.609375"/>
     <use xlink:href="#DejaVuSans-34" x="610.396484"/>
     <use xlink:href="#DejaVuSans-30" x="674.019531"/>
     <use xlink:href="#DejaVuSans-33" x="737.642578"/>
     <use xlink:href="#DejaVuSans-2013" x="801.265625"/>
     <use xlink:href="#DejaVuSans-34" x="851.265625"/>
     <use xlink:href="#DejaVuSans-36" x="914.888672"/>
     <use xlink:href="#DejaVuSans-32" x="978.511719"/>
     <use xlink:href="#DejaVuSans-20" x="1042.134766"/>
     <use xlink:href="#DejaVuSans-72" x="1073.921875"/>
     <use xlink:href="#DejaVuSans-61" x="1115.035156"/>
     <use xlink:href="#DejaVuSans-6e" x="1176.314453"/>
     <use xlink:href="#DejaVuSans-67" x="1239.693359"/>
     <use xlink:href="#DejaVuSans-65" x="1303.169922"/>
     <use xlink:href="#DejaVuSans-20" x="1364.693359"/>
     <use xlink:href="#DejaVuSans-72" x="1396.480469"/>
     <use xlink:href="#DejaVuSans-65" x="1435.34375"/>
     <use xlink:href="#DejaVuSans-71" x="1496.867188"/>
     <use xlink:href="#DejaVuSans-75" x="1560.34375"/>
     <use xlink:href="#DejaVuSans-69" x="1623.722656"/>
     <use xlink:href="#DejaVuSans-72" x="1651.505859"/>
     <use xlink:href="#DejaVuSans-65" x="1690.369141"/>
     <use xlink:href="#DejaVuSans-73" x="1751.892578"/>
    </g>
    <!-- at today's 121 external seats: 54%–65% -->
    <g style="fill: #e34948" transform="translate(84.247159 131.993985) scale(0.068 -0.068)">
     <defs>
      <path id="DejaVuSans-79" d="M 2059 -325 
Q 1816 -950 1584 -1140 
Q 1353 -1331 966 -1331 
L 506 -1331 
L 506 -850 
L 844 -850 
Q 1081 -850 1212 -737 
Q 1344 -625 1503 -206 
L 1606 56 
L 191 3500 
L 800 3500 
L 1894 763 
L 2988 3500 
L 3597 3500 
L 2059 -325 
z
" transform="scale(0.015625)"/>
      <path id="DejaVuSans-27" d="M 1147 4666 
L 1147 2931 
L 616 2931 
L 616 4666 
L 1147 4666 
z
" transform="scale(0.015625)"/>
      <path id="DejaVuSans-78" d="M 3513 3500 
L 2247 1797 
L 3578 0 
L 2900 0 
L 1881 1375 
L 863 0 
L 184 0 
L 1544 1831 
L 300 3500 
L 978 3500 
L 1906 2253 
L 2834 3500 
L 3513 3500 
z
" transform="scale(0.015625)"/>
      <path id="DejaVuSans-6c" d="M 603 4863 
L 1178 4863 
L 1178 0 
L 603 0 
L 603 4863 
z
" transform="scale(0.015625)"/>
      <path id="DejaVuSans-3a" d="M 750 794 
L 1409 794 
L 1409 0 
L 750 0 
L 750 794 
z
M 750 3309 
L 1409 3309 
L 1409 2516 
L 750 2516 
L 750 3309 
z
" transform="scale(0.015625)"/>
     </defs>
     <use xlink:href="#DejaVuSans-61"/>
     <use xlink:href="#DejaVuSans-74" x="61.279297"/>
     <use xlink:href="#DejaVuSans-20" x="100.488281"/>
     <use xlink:href="#DejaVuSans-74" x="132.275391"/>
     <use xlink:href="#DejaVuSans-6f" x="171.484375"/>
     <use xlink:href="#DejaVuSans-64" x="232.666016"/>
     <use xlink:href="#DejaVuSans-61" x="296.142578"/>
     <use xlink:href="#DejaVuSans-79" x="357.421875"/>
     <use xlink:href="#DejaVuSans-27" x="416.601562"/>
     <use xlink:href="#DejaVuSans-73" x="444.091797"/>
     <use xlink:href="#DejaVuSans-20" x="496.191406"/>
     <use xlink:href="#DejaVuSans-31" x="527.978516"/>
     <use xlink:href="#DejaVuSans-32" x="591.601562"/>
     <use xlink:href="#DejaVuSans-31" x="655.224609"/>
     <use xlink:href="#DejaVuSans-20" x="718.847656"/>
     <use xlink:href="#DejaVuSans-65" x="750.634766"/>
     <use xlink:href="#DejaVuSans-78" x="810.408203"/>
     <use xlink:href="#DejaVuSans-74" x="869.587891"/>
     <use xlink:href="#DejaVuSans-65" x="908.796875"/>
     <use xlink:href="#DejaVuSans-72" x="970.320312"/>
     <use xlink:href="#DejaVuSans-6e" x="1009.683594"/>
     <use xlink:href="#DejaVuSans-61" x="1073.0625"/>
     <use xlink:href="#DejaVuSans-6c" x="1134.341797"/>
     <use xlink:href="#DejaVuSans-20" x="1162.125"/>
     <use xlink:href="#DejaVuSans-73" x="1193.912109"/>
     <use xlink:href="#DejaVuSans-65" x="1246.011719"/>
     <use xlink:href="#DejaVuSans-61" x="1307.535156"/>
     <use xlink:href="#DejaVuSans-74" x="1368.814453"/>
     <use xlink:href="#DejaVuSans-73" x="1408.023438"/>
     <use xlink:href="#DejaVuSans-3a" x="1460.123047"/>
     <use xlink:href="#DejaVuSans-20" x="1493.814453"/>
     <use xlink:href="#DejaVuSans-35" x="1525.601562"/>
     <use xlink:href="#DejaVuSans-34" x="1589.224609"/>
     <use xlink:href="#DejaVuSans-25" x="1652.847656"/>
     <use xlink:href="#DejaVuSans-2013" x="1747.867188"/>
     <use xlink:href="#DejaVuSans-36" x="1797.867188"/>
     <use xlink:href="#DejaVuSans-35" x="1861.490234"/>
     <use xlink:href="#DejaVuSans-25" x="1925.113281"/>
    </g>
   </g>
   <g id="text_19">
    <!-- 86% -->
    <g style="fill: #4a3aa7" transform="translate(74.962731 58.981482) scale(0.065 -0.065)">
     <use xlink:href="#DejaVuSans-38"/>
     <use xlink:href="#DejaVuSans-36" x="63.623047"/>
     <use xlink:href="#DejaVuSans-25" x="127.246094"/>
    </g>
   </g>
   <g id="text_20">
    <!-- 86% -->
    <g style="fill: #4a3aa7" transform="translate(116.17864 58.260762) scale(0.065 -0.065)">
     <use xlink:href="#DejaVuSans-38"/>
     <use xlink:href="#DejaVuSans-36" x="63.623047"/>
     <use xlink:href="#DejaVuSans-25" x="127.246094"/>
    </g>
   </g>
   <g id="text_21">
    <!-- 86% -->
    <g style="fill: #4a3aa7" transform="translate(157.394549 59.461962) scale(0.065 -0.065)">
     <use xlink:href="#DejaVuSans-38"/>
     <use xlink:href="#DejaVuSans-36" x="63.623047"/>
     <use xlink:href="#DejaVuSans-25" x="127.246094"/>
    </g>
   </g>
   <g id="text_22">
    <!-- 84% -->
    <g style="fill: #4a3aa7" transform="translate(198.610458 64.026522) scale(0.065 -0.065)">
     <use xlink:href="#DejaVuSans-38"/>
     <use xlink:href="#DejaVuSans-34" x="63.623047"/>
     <use xlink:href="#DejaVuSans-25" x="127.246094"/>
    </g>
   </g>
   <g id="text_23">
    <!-- 87% -->
    <g style="fill: #4a3aa7" transform="translate(239.826367 56.338842) scale(0.065 -0.065)">
     <use xlink:href="#DejaVuSans-38"/>
     <use xlink:href="#DejaVuSans-37" x="63.623047"/>
     <use xlink:href="#DejaVuSans-25" x="127.246094"/>
    </g>
   </g>
   <g id="text_24">
    <!-- 85% -->
    <g style="fill: #4a3aa7" transform="translate(281.042276 61.624122) scale(0.065 -0.065)">
     <use xlink:href="#DejaVuSans-38"/>
     <use xlink:href="#DejaVuSans-35" x="63.623047"/>
     <use xlink:href="#DejaVuSans-25" x="127.246094"/>
    </g>
   </g>
   <g id="text_25">
    <!-- 81% -->
    <g style="fill: #4a3aa7" transform="translate(322.258185 71.714202) scale(0.065 -0.065)">
     <use xlink:href="#DejaVuSans-38"/>
     <use xlink:href="#DejaVuSans-31" x="63.623047"/>
     <use xlink:href="#DejaVuSans-25" x="127.246094"/>
    </g>
   </g>
   <g id="text_26">
    <!-- 81% -->
    <g style="fill: #4a3aa7" transform="translate(363.474094 72.434922) scale(0.065 -0.065)">
     <use xlink:href="#DejaVuSans-38"/>
     <use xlink:href="#DejaVuSans-31" x="63.623047"/>
     <use xlink:href="#DejaVuSans-25" x="127.246094"/>
    </g>
   </g>
   <g id="text_27">
    <!-- 83% -->
    <g style="fill: #4a3aa7" transform="translate(404.690004 67.389882) scale(0.065 -0.065)">
     <use xlink:href="#DejaVuSans-38"/>
     <use xlink:href="#DejaVuSans-33" x="63.623047"/>
     <use xlink:href="#DejaVuSans-25" x="127.246094"/>
    </g>
   </g>
   <g id="text_28">
    <!-- Combined-area capture has stayed between 81% and 87% for nine -->
    <g style="fill: #0b0b0b" transform="translate(65.7 13.734656) scale(0.086 -0.086)">
     <defs>
      <path id="DejaVuSans-Bold-43" d="M 4288 256 
Q 3956 84 3597 -3 
Q 3238 -91 2847 -91 
Q 1681 -91 1000 561 
Q 319 1213 319 2328 
Q 319 3447 1000 4098 
Q 1681 4750 2847 4750 
Q 3238 4750 3597 4662 
Q 3956 4575 4288 4403 
L 4288 3438 
Q 3953 3666 3628 3772 
Q 3303 3878 2944 3878 
Q 2300 3878 1931 3465 
Q 1563 3053 1563 2328 
Q 1563 1606 1931 1193 
Q 2300 781 2944 781 
Q 3303 781 3628 887 
Q 3953 994 4288 1222 
L 4288 256 
z
" transform="scale(0.015625)"/>
      <path id="DejaVuSans-Bold-6f" d="M 2203 2784 
Q 1831 2784 1636 2517 
Q 1441 2250 1441 1747 
Q 1441 1244 1636 976 
Q 1831 709 2203 709 
Q 2569 709 2762 976 
Q 2956 1244 2956 1747 
Q 2956 2250 2762 2517 
Q 2569 2784 2203 2784 
z
M 2203 3584 
Q 3106 3584 3614 3096 
Q 4122 2609 4122 1747 
Q 4122 884 3614 396 
Q 3106 -91 2203 -91 
Q 1297 -91 786 396 
Q 275 884 275 1747 
Q 275 2609 786 3096 
Q 1297 3584 2203 3584 
z
" transform="scale(0.015625)"/>
      <path id="DejaVuSans-Bold-6d" d="M 3781 2919 
Q 3994 3244 4286 3414 
Q 4578 3584 4928 3584 
Q 5531 3584 5847 3212 
Q 6163 2841 6163 2131 
L 6163 0 
L 5038 0 
L 5038 1825 
Q 5041 1866 5042 1909 
Q 5044 1953 5044 2034 
Q 5044 2406 4934 2573 
Q 4825 2741 4581 2741 
Q 4263 2741 4089 2478 
Q 3916 2216 3909 1719 
L 3909 0 
L 2784 0 
L 2784 1825 
Q 2784 2406 2684 2573 
Q 2584 2741 2328 2741 
Q 2006 2741 1831 2477 
Q 1656 2213 1656 1722 
L 1656 0 
L 531 0 
L 531 3500 
L 1656 3500 
L 1656 2988 
Q 1863 3284 2130 3434 
Q 2397 3584 2719 3584 
Q 3081 3584 3359 3409 
Q 3638 3234 3781 2919 
z
" transform="scale(0.015625)"/>
      <path id="DejaVuSans-Bold-62" d="M 2400 722 
Q 2759 722 2948 984 
Q 3138 1247 3138 1747 
Q 3138 2247 2948 2509 
Q 2759 2772 2400 2772 
Q 2041 2772 1848 2508 
Q 1656 2244 1656 1747 
Q 1656 1250 1848 986 
Q 2041 722 2400 722 
z
M 1656 2988 
Q 1888 3294 2169 3439 
Q 2450 3584 2816 3584 
Q 3463 3584 3878 3070 
Q 4294 2556 4294 1747 
Q 4294 938 3878 423 
Q 3463 -91 2816 -91 
Q 2450 -91 2169 54 
Q 1888 200 1656 506 
L 1656 0 
L 538 0 
L 538 4863 
L 1656 4863 
L 1656 2988 
z
" transform="scale(0.015625)"/>
      <path id="DejaVuSans-Bold-69" d="M 538 3500 
L 1656 3500 
L 1656 0 
L 538 0 
L 538 3500 
z
M 538 4863 
L 1656 4863 
L 1656 3950 
L 538 3950 
L 538 4863 
z
" transform="scale(0.015625)"/>
      <path id="DejaVuSans-Bold-6e" d="M 4056 2131 
L 4056 0 
L 2931 0 
L 2931 347 
L 2931 1631 
Q 2931 2084 2911 2256 
Q 2891 2428 2841 2509 
Q 2775 2619 2662 2680 
Q 2550 2741 2406 2741 
Q 2056 2741 1856 2470 
Q 1656 2200 1656 1722 
L 1656 0 
L 538 0 
L 538 3500 
L 1656 3500 
L 1656 2988 
Q 1909 3294 2193 3439 
Q 2478 3584 2822 3584 
Q 3428 3584 3742 3212 
Q 4056 2841 4056 2131 
z
" transform="scale(0.015625)"/>
      <path id="DejaVuSans-Bold-65" d="M 4031 1759 
L 4031 1441 
L 1416 1441 
Q 1456 1047 1700 850 
Q 1944 653 2381 653 
Q 2734 653 3104 758 
Q 3475 863 3866 1075 
L 3866 213 
Q 3469 63 3072 -14 
Q 2675 -91 2278 -91 
Q 1328 -91 801 392 
Q 275 875 275 1747 
Q 275 2603 792 3093 
Q 1309 3584 2216 3584 
Q 3041 3584 3536 3087 
Q 4031 2591 4031 1759 
z
M 2881 2131 
Q 2881 2450 2695 2645 
Q 2509 2841 2209 2841 
Q 1884 2841 1681 2658 
Q 1478 2475 1428 2131 
L 2881 2131 
z
" transform="scale(0.015625)"/>
      <path id="DejaVuSans-Bold-64" d="M 2919 2988 
L 2919 4863 
L 4044 4863 
L 4044 0 
L 2919 0 
L 2919 506 
Q 2688 197 2409 53 
Q 2131 -91 1766 -91 
Q 1119 -91 703 423 
Q 288 938 288 1747 
Q 288 2556 703 3070 
Q 1119 3584 1766 3584 
Q 2128 3584 2408 3439 
Q 2688 3294 2919 2988 
z
M 2181 722 
Q 2541 722 2730 984 
Q 2919 1247 2919 1747 
Q 2919 2247 2730 2509 
Q 2541 2772 2181 2772 
Q 1825 2772 1636 2509 
Q 1447 2247 1447 1747 
Q 1447 1247 1636 984 
Q 1825 722 2181 722 
z
" transform="scale(0.015625)"/>
      <path id="DejaVuSans-Bold-2d" d="M 347 2297 
L 2309 2297 
L 2309 1388 
L 347 1388 
L 347 2297 
z
" transform="scale(0.015625)"/>
      <path id="DejaVuSans-Bold-61" d="M 2106 1575 
Q 1756 1575 1579 1456 
Q 1403 1338 1403 1106 
Q 1403 894 1545 773 
Q 1688 653 1941 653 
Q 2256 653 2472 879 
Q 2688 1106 2688 1447 
L 2688 1575 
L 2106 1575 
z
M 3816 1997 
L 3816 0 
L 2688 0 
L 2688 519 
Q 2463 200 2181 54 
Q 1900 -91 1497 -91 
Q 953 -91 614 226 
Q 275 544 275 1050 
Q 275 1666 698 1953 
Q 1122 2241 2028 2241 
L 2688 2241 
L 2688 2328 
Q 2688 2594 2478 2717 
Q 2269 2841 1825 2841 
Q 1466 2841 1156 2769 
Q 847 2697 581 2553 
L 581 3406 
Q 941 3494 1303 3539 
Q 1666 3584 2028 3584 
Q 2975 3584 3395 3211 
Q 3816 2838 3816 1997 
z
" transform="scale(0.015625)"/>
      <path id="DejaVuSans-Bold-72" d="M 3138 2547 
Q 2991 2616 2845 2648 
Q 2700 2681 2553 2681 
Q 2122 2681 1889 2404 
Q 1656 2128 1656 1613 
L 1656 0 
L 538 0 
L 538 3500 
L 1656 3500 
L 1656 2925 
Q 1872 3269 2151 3426 
Q 2431 3584 2822 3584 
Q 2878 3584 2943 3579 
Q 3009 3575 3134 3559 
L 3138 2547 
z
" transform="scale(0.015625)"/>
      <path id="DejaVuSans-Bold-20" transform="scale(0.015625)"/>
      <path id="DejaVuSans-Bold-63" d="M 3366 3391 
L 3366 2478 
Q 3138 2634 2908 2709 
Q 2678 2784 2431 2784 
Q 1963 2784 1702 2511 
Q 1441 2238 1441 1747 
Q 1441 1256 1702 982 
Q 1963 709 2431 709 
Q 2694 709 2930 787 
Q 3166 866 3366 1019 
L 3366 103 
Q 3103 6 2833 -42 
Q 2563 -91 2291 -91 
Q 1344 -91 809 395 
Q 275 881 275 1747 
Q 275 2613 809 3098 
Q 1344 3584 2291 3584 
Q 2566 3584 2833 3536 
Q 3100 3488 3366 3391 
z
" transform="scale(0.015625)"/>
      <path id="DejaVuSans-Bold-70" d="M 1656 506 
L 1656 -1331 
L 538 -1331 
L 538 3500 
L 1656 3500 
L 1656 2988 
Q 1888 3294 2169 3439 
Q 2450 3584 2816 3584 
Q 3463 3584 3878 3070 
Q 4294 2556 4294 1747 
Q 4294 938 3878 423 
Q 3463 -91 2816 -91 
Q 2450 -91 2169 54 
Q 1888 200 1656 506 
z
M 2400 2772 
Q 2041 2772 1848 2508 
Q 1656 2244 1656 1747 
Q 1656 1250 1848 986 
Q 2041 722 2400 722 
Q 2759 722 2948 984 
Q 3138 1247 3138 1747 
Q 3138 2247 2948 2509 
Q 2759 2772 2400 2772 
z
" transform="scale(0.015625)"/>
      <path id="DejaVuSans-Bold-74" d="M 1759 4494 
L 1759 3500 
L 2913 3500 
L 2913 2700 
L 1759 2700 
L 1759 1216 
Q 1759 972 1856 886 
Q 1953 800 2241 800 
L 2816 800 
L 2816 0 
L 1856 0 
Q 1194 0 917 276 
Q 641 553 641 1216 
L 641 2700 
L 84 2700 
L 84 3500 
L 641 3500 
L 641 4494 
L 1759 4494 
z
" transform="scale(0.015625)"/>
      <path id="DejaVuSans-Bold-75" d="M 500 1363 
L 500 3500 
L 1625 3500 
L 1625 3150 
Q 1625 2866 1622 2436 
Q 1619 2006 1619 1863 
Q 1619 1441 1641 1255 
Q 1663 1069 1716 984 
Q 1784 875 1895 815 
Q 2006 756 2150 756 
Q 2500 756 2700 1025 
Q 2900 1294 2900 1772 
L 2900 3500 
L 4019 3500 
L 4019 0 
L 2900 0 
L 2900 506 
Q 2647 200 2364 54 
Q 2081 -91 1741 -91 
Q 1134 -91 817 281 
Q 500 653 500 1363 
z
" transform="scale(0.015625)"/>
      <path id="DejaVuSans-Bold-68" d="M 4056 2131 
L 4056 0 
L 2931 0 
L 2931 347 
L 2931 1625 
Q 2931 2084 2911 2256 
Q 2891 2428 2841 2509 
Q 2775 2619 2662 2680 
Q 2550 2741 2406 2741 
Q 2056 2741 1856 2470 
Q 1656 2200 1656 1722 
L 1656 0 
L 538 0 
L 538 4863 
L 1656 4863 
L 1656 2988 
Q 1909 3294 2193 3439 
Q 2478 3584 2822 3584 
Q 3428 3584 3742 3212 
Q 4056 2841 4056 2131 
z
" transform="scale(0.015625)"/>
      <path id="DejaVuSans-Bold-73" d="M 3272 3391 
L 3272 2541 
Q 2913 2691 2578 2766 
Q 2244 2841 1947 2841 
Q 1628 2841 1473 2761 
Q 1319 2681 1319 2516 
Q 1319 2381 1436 2309 
Q 1553 2238 1856 2203 
L 2053 2175 
Q 2913 2066 3209 1816 
Q 3506 1566 3506 1031 
Q 3506 472 3093 190 
Q 2681 -91 1863 -91 
Q 1516 -91 1145 -36 
Q 775 19 384 128 
L 384 978 
Q 719 816 1070 734 
Q 1422 653 1784 653 
Q 2113 653 2278 743 
Q 2444 834 2444 1013 
Q 2444 1163 2330 1236 
Q 2216 1309 1875 1350 
L 1678 1375 
Q 931 1469 631 1722 
Q 331 1975 331 2491 
Q 331 3047 712 3315 
Q 1094 3584 1881 3584 
Q 2191 3584 2531 3537 
Q 2872 3491 3272 3391 
z
" transform="scale(0.015625)"/>
      <path id="DejaVuSans-Bold-79" d="M 78 3500 
L 1197 3500 
L 2138 1125 
L 2938 3500 
L 4056 3500 
L 2584 -331 
Q 2363 -916 2067 -1148 
Q 1772 -1381 1288 -1381 
L 641 -1381 
L 641 -647 
L 991 -647 
Q 1275 -647 1404 -556 
Q 1534 -466 1606 -231 
L 1638 -134 
L 78 3500 
z
" transform="scale(0.015625)"/>
      <path id="DejaVuSans-Bold-77" d="M 225 3500 
L 1313 3500 
L 1900 1088 
L 2491 3500 
L 3425 3500 
L 4013 1113 
L 4603 3500 
L 5691 3500 
L 4769 0 
L 3547 0 
L 2956 2406 
L 2369 0 
L 1147 0 
L 225 3500 
z
" transform="scale(0.015625)"/>
      <path id="DejaVuSans-Bold-38" d="M 2228 2088 
Q 1891 2088 1709 1903 
Q 1528 1719 1528 1375 
Q 1528 1031 1709 848 
Q 1891 666 2228 666 
Q 2563 666 2741 848 
Q 2919 1031 2919 1375 
Q 2919 1722 2741 1905 
Q 2563 2088 2228 2088 
z
M 1350 2484 
Q 925 2613 709 2878 
Q 494 3144 494 3541 
Q 494 4131 934 4440 
Q 1375 4750 2228 4750 
Q 3075 4750 3515 4442 
Q 3956 4134 3956 3541 
Q 3956 3144 3739 2878 
Q 3522 2613 3097 2484 
Q 3572 2353 3814 2058 
Q 4056 1763 4056 1313 
Q 4056 619 3595 264 
Q 3134 -91 2228 -91 
Q 1319 -91 855 264 
Q 391 619 391 1313 
Q 391 1763 633 2058 
Q 875 2353 1350 2484 
z
M 1631 3419 
Q 1631 3141 1786 2991 
Q 1941 2841 2228 2841 
Q 2509 2841 2662 2991 
Q 2816 3141 2816 3419 
Q 2816 3697 2662 3845 
Q 2509 3994 2228 3994 
Q 1941 3994 1786 3844 
Q 1631 3694 1631 3419 
z
" transform="scale(0.015625)"/>
      <path id="DejaVuSans-Bold-31" d="M 750 831 
L 1813 831 
L 1813 3847 
L 722 3622 
L 722 4441 
L 1806 4666 
L 2950 4666 
L 2950 831 
L 4013 831 
L 4013 0 
L 750 0 
L 750 831 
z
" transform="scale(0.015625)"/>
      <path id="DejaVuSans-Bold-25" d="M 4959 1925 
Q 4738 1925 4616 1733 
Q 4494 1541 4494 1184 
Q 4494 825 4614 633 
Q 4734 441 4959 441 
Q 5184 441 5303 633 
Q 5422 825 5422 1184 
Q 5422 1541 5301 1733 
Q 5181 1925 4959 1925 
z
M 4959 2450 
Q 5541 2450 5875 2112 
Q 6209 1775 6209 1184 
Q 6209 594 5875 251 
Q 5541 -91 4959 -91 
Q 4378 -91 4042 251 
Q 3706 594 3706 1184 
Q 3706 1772 4042 2111 
Q 4378 2450 4959 2450 
z
M 2094 -91 
L 1403 -91 
L 4319 4750 
L 5013 4750 
L 2094 -91 
z
M 1453 4750 
Q 2034 4750 2367 4411 
Q 2700 4072 2700 3481 
Q 2700 2891 2367 2550 
Q 2034 2209 1453 2209 
Q 872 2209 539 2550 
Q 206 2891 206 3481 
Q 206 4072 539 4411 
Q 872 4750 1453 4750 
z
M 1453 4225 
Q 1228 4225 1106 4031 
Q 984 3838 984 3481 
Q 984 3122 1106 2926 
Q 1228 2731 1453 2731 
Q 1678 2731 1798 2926 
Q 1919 3122 1919 3481 
Q 1919 3838 1797 4031 
Q 1675 4225 1453 4225 
z
" transform="scale(0.015625)"/>
      <path id="DejaVuSans-Bold-37" d="M 428 4666 
L 3944 4666 
L 3944 3988 
L 2125 0 
L 953 0 
L 2675 3781 
L 428 3781 
L 428 4666 
z
" transform="scale(0.015625)"/>
      <path id="DejaVuSans-Bold-66" d="M 2841 4863 
L 2841 4128 
L 2222 4128 
Q 1984 4128 1890 4042 
Q 1797 3956 1797 3744 
L 1797 3500 
L 2753 3500 
L 2753 2700 
L 1797 2700 
L 1797 0 
L 678 0 
L 678 2700 
L 122 2700 
L 122 3500 
L 678 3500 
L 678 3744 
Q 678 4316 997 4589 
Q 1316 4863 1984 4863 
L 2841 4863 
z
" transform="scale(0.015625)"/>
     </defs>
     <use xlink:href="#DejaVuSans-Bold-43"/>
     <use xlink:href="#DejaVuSans-Bold-6f" x="73.388672"/>
     <use xlink:href="#DejaVuSans-Bold-6d" x="142.089844"/>
     <use xlink:href="#DejaVuSans-Bold-62" x="246.289062"/>
     <use xlink:href="#DejaVuSans-Bold-69" x="317.871094"/>
     <use xlink:href="#DejaVuSans-Bold-6e" x="352.148438"/>
     <use xlink:href="#DejaVuSans-Bold-65" x="423.339844"/>
     <use xlink:href="#DejaVuSans-Bold-64" x="491.162109"/>
     <use xlink:href="#DejaVuSans-Bold-2d" x="562.744141"/>
     <use xlink:href="#DejaVuSans-Bold-61" x="604.248047"/>
     <use xlink:href="#DejaVuSans-Bold-72" x="671.728516"/>
     <use xlink:href="#DejaVuSans-Bold-65" x="721.044922"/>
     <use xlink:href="#DejaVuSans-Bold-61" x="788.867188"/>
     <use xlink:href="#DejaVuSans-Bold-20" x="856.347656"/>
     <use xlink:href="#DejaVuSans-Bold-63" x="891.162109"/>
     <use xlink:href="#DejaVuSans-Bold-61" x="950.439453"/>
     <use xlink:href="#DejaVuSans-Bold-70" x="1017.919922"/>
     <use xlink:href="#DejaVuSans-Bold-74" x="1089.501953"/>
     <use xlink:href="#DejaVuSans-Bold-75" x="1137.304688"/>
     <use xlink:href="#DejaVuSans-Bold-72" x="1208.496094"/>
     <use xlink:href="#DejaVuSans-Bold-65" x="1257.8125"/>
     <use xlink:href="#DejaVuSans-Bold-20" x="1325.634766"/>
     <use xlink:href="#DejaVuSans-Bold-68" x="1360.449219"/>
     <use xlink:href="#DejaVuSans-Bold-61" x="1431.640625"/>
     <use xlink:href="#DejaVuSans-Bold-73" x="1499.121094"/>
     <use xlink:href="#DejaVuSans-Bold-20" x="1558.642578"/>
     <use xlink:href="#DejaVuSans-Bold-73" x="1593.457031"/>
     <use xlink:href="#DejaVuSans-Bold-74" x="1652.978516"/>
     <use xlink:href="#DejaVuSans-Bold-61" x="1700.78125"/>
     <use xlink:href="#DejaVuSans-Bold-79" x="1765.136719"/>
     <use xlink:href="#DejaVuSans-Bold-65" x="1830.322266"/>
     <use xlink:href="#DejaVuSans-Bold-64" x="1898.144531"/>
     <use xlink:href="#DejaVuSans-Bold-20" x="1969.726562"/>
     <use xlink:href="#DejaVuSans-Bold-62" x="2004.541016"/>
     <use xlink:href="#DejaVuSans-Bold-65" x="2076.123047"/>
     <use xlink:href="#DejaVuSans-Bold-74" x="2143.945312"/>
     <use xlink:href="#DejaVuSans-Bold-77" x="2191.748047"/>
     <use xlink:href="#DejaVuSans-Bold-65" x="2284.130859"/>
     <use xlink:href="#DejaVuSans-Bold-65" x="2351.953125"/>
     <use xlink:href="#DejaVuSans-Bold-6e" x="2419.775391"/>
     <use xlink:href="#DejaVuSans-Bold-20" x="2490.966797"/>
     <use xlink:href="#DejaVuSans-Bold-38" x="2525.78125"/>
     <use xlink:href="#DejaVuSans-Bold-31" x="2595.361328"/>
     <use xlink:href="#DejaVuSans-Bold-25" x="2664.941406"/>
     <use xlink:href="#DejaVuSans-Bold-20" x="2765.136719"/>
     <use xlink:href="#DejaVuSans-Bold-61" x="2799.951172"/>
     <use xlink:href="#DejaVuSans-Bold-6e" x="2867.431641"/>
     <use xlink:href="#DejaVuSans-Bold-64" x="2938.623047"/>
     <use xlink:href="#DejaVuSans-Bold-20" x="3010.205078"/>
     <use xlink:href="#DejaVuSans-Bold-38" x="3045.019531"/>
     <use xlink:href="#DejaVuSans-Bold-37" x="3114.599609"/>
     <use xlink:href="#DejaVuSans-Bold-25" x="3184.179688"/>
     <use xlink:href="#DejaVuSans-Bold-20" x="3284.375"/>
     <use xlink:href="#DejaVuSans-Bold-66" x="3319.189453"/>
     <use xlink:href="#DejaVuSans-Bold-6f" x="3362.695312"/>
     <use xlink:href="#DejaVuSans-Bold-72" x="3431.396484"/>
     <use xlink:href="#DejaVuSans-Bold-20" x="3480.712891"/>
     <use xlink:href="#DejaVuSans-Bold-6e" x="3515.527344"/>
     <use xlink:href="#DejaVuSans-Bold-69" x="3586.71875"/>
     <use xlink:href="#DejaVuSans-Bold-6e" x="3620.996094"/>
     <use xlink:href="#DejaVuSans-Bold-65" x="3692.1875"/>
    </g>
    <!-- years; the proposal's range needs 54–65% -->
    <g style="fill: #0b0b0b" transform="translate(65.7 23.431962) scale(0.086 -0.086)">
     <defs>
      <path id="DejaVuSans-Bold-3b" d="M 716 1209 
L 1844 1209 
L 1844 256 
L 1069 -909 
L 403 -909 
L 716 256 
L 716 1209 
z
M 716 3500 
L 1844 3500 
L 1844 2291 
L 716 2291 
L 716 3500 
z
" transform="scale(0.015625)"/>
      <path id="DejaVuSans-Bold-6c" d="M 538 4863 
L 1656 4863 
L 1656 0 
L 538 0 
L 538 4863 
z
" transform="scale(0.015625)"/>
      <path id="DejaVuSans-Bold-27" d="M 1350 4666 
L 1350 2931 
L 609 2931 
L 609 4666 
L 1350 4666 
z
" transform="scale(0.015625)"/>
      <path id="DejaVuSans-Bold-67" d="M 2919 594 
Q 2688 288 2409 144 
Q 2131 0 1766 0 
Q 1125 0 706 504 
Q 288 1009 288 1791 
Q 288 2575 706 3076 
Q 1125 3578 1766 3578 
Q 2131 3578 2409 3434 
Q 2688 3291 2919 2981 
L 2919 3500 
L 4044 3500 
L 4044 353 
Q 4044 -491 3511 -936 
Q 2978 -1381 1966 -1381 
Q 1638 -1381 1331 -1331 
Q 1025 -1281 716 -1178 
L 716 -306 
Q 1009 -475 1290 -558 
Q 1572 -641 1856 -641 
Q 2406 -641 2662 -400 
Q 2919 -159 2919 353 
L 2919 594 
z
M 2181 2772 
Q 1834 2772 1640 2515 
Q 1447 2259 1447 1791 
Q 1447 1309 1634 1061 
Q 1822 813 2181 813 
Q 2531 813 2725 1069 
Q 2919 1325 2919 1791 
Q 2919 2259 2725 2515 
Q 2531 2772 2181 2772 
z
" transform="scale(0.015625)"/>
      <path id="DejaVuSans-Bold-35" d="M 678 4666 
L 3669 4666 
L 3669 3781 
L 1638 3781 
L 1638 3059 
Q 1775 3097 1914 3117 
Q 2053 3138 2203 3138 
Q 3056 3138 3531 2711 
Q 4006 2284 4006 1522 
Q 4006 766 3489 337 
Q 2972 -91 2053 -91 
Q 1656 -91 1267 -14 
Q 878 63 494 219 
L 494 1166 
Q 875 947 1217 837 
Q 1559 728 1863 728 
Q 2300 728 2551 942 
Q 2803 1156 2803 1522 
Q 2803 1891 2551 2103 
Q 2300 2316 1863 2316 
Q 1603 2316 1309 2248 
Q 1016 2181 678 2041 
L 678 4666 
z
" transform="scale(0.015625)"/>
      <path id="DejaVuSans-Bold-34" d="M 2356 3675 
L 1038 1722 
L 2356 1722 
L 2356 3675 
z
M 2156 4666 
L 3494 4666 
L 3494 1722 
L 4159 1722 
L 4159 850 
L 3494 850 
L 3494 0 
L 2356 0 
L 2356 850 
L 288 850 
L 288 1881 
L 2156 4666 
z
" transform="scale(0.015625)"/>
      <path id="DejaVuSans-Bold-2013" d="M 344 2156 
L 2856 2156 
L 2856 1350 
L 344 1350 
L 344 2156 
z
" transform="scale(0.015625)"/>
      <path id="DejaVuSans-Bold-36" d="M 2316 2303 
Q 2000 2303 1842 2098 
Q 1684 1894 1684 1484 
Q 1684 1075 1842 870 
Q 2000 666 2316 666 
Q 2634 666 2792 870 
Q 2950 1075 2950 1484 
Q 2950 1894 2792 2098 
Q 2634 2303 2316 2303 
z
M 3803 4544 
L 3803 3681 
Q 3506 3822 3243 3889 
Q 2981 3956 2731 3956 
Q 2194 3956 1894 3657 
Q 1594 3359 1544 2772 
Q 1750 2925 1990 3001 
Q 2231 3078 2516 3078 
Q 3231 3078 3670 2659 
Q 4109 2241 4109 1563 
Q 4109 813 3618 361 
Q 3128 -91 2303 -91 
Q 1394 -91 895 523 
Q 397 1138 397 2266 
Q 397 3422 980 4083 
Q 1563 4744 2578 4744 
Q 2900 4744 3203 4694 
Q 3506 4644 3803 4544 
z
" transform="scale(0.015625)"/>
     </defs>
     <use xlink:href="#DejaVuSans-Bold-79"/>
     <use xlink:href="#DejaVuSans-Bold-65" x="65.185547"/>
     <use xlink:href="#DejaVuSans-Bold-61" x="133.007812"/>
     <use xlink:href="#DejaVuSans-Bold-72" x="200.488281"/>
     <use xlink:href="#DejaVuSans-Bold-73" x="249.804688"/>
     <use xlink:href="#DejaVuSans-Bold-3b" x="309.326172"/>
     <use xlink:href="#DejaVuSans-Bold-20" x="349.316406"/>
     <use xlink:href="#DejaVuSans-Bold-74" x="384.130859"/>
     <use xlink:href="#DejaVuSans-Bold-68" x="431.933594"/>
     <use xlink:href="#DejaVuSans-Bold-65" x="503.125"/>
     <use xlink:href="#DejaVuSans-Bold-20" x="570.947266"/>
     <use xlink:href="#DejaVuSans-Bold-70" x="605.761719"/>
     <use xlink:href="#DejaVuSans-Bold-72" x="677.34375"/>
     <use xlink:href="#DejaVuSans-Bold-6f" x="726.660156"/>
     <use xlink:href="#DejaVuSans-Bold-70" x="795.361328"/>
     <use xlink:href="#DejaVuSans-Bold-6f" x="866.943359"/>
     <use xlink:href="#DejaVuSans-Bold-73" x="935.644531"/>
     <use xlink:href="#DejaVuSans-Bold-61" x="995.166016"/>
     <use xlink:href="#DejaVuSans-Bold-6c" x="1062.646484"/>
     <use xlink:href="#DejaVuSans-Bold-27" x="1096.923828"/>
     <use xlink:href="#DejaVuSans-Bold-73" x="1127.539062"/>
     <use xlink:href="#DejaVuSans-Bold-20" x="1187.060547"/>
     <use xlink:href="#DejaVuSans-Bold-72" x="1221.875"/>
     <use xlink:href="#DejaVuSans-Bold-61" x="1271.191406"/>
     <use xlink:href="#DejaVuSans-Bold-6e" x="1338.671875"/>
     <use xlink:href="#DejaVuSans-Bold-67" x="1409.863281"/>
     <use xlink:href="#DejaVuSans-Bold-65" x="1481.445312"/>
     <use xlink:href="#DejaVuSans-Bold-20" x="1549.267578"/>
     <use xlink:href="#DejaVuSans-Bold-6e" x="1584.082031"/>
     <use xlink:href="#DejaVuSans-Bold-65" x="1655.273438"/>
     <use xlink:href="#DejaVuSans-Bold-65" x="1723.095703"/>
     <use xlink:href="#DejaVuSans-Bold-64" x="1790.917969"/>
     <use xlink:href="#DejaVuSans-Bold-73" x="1862.5"/>
     <use xlink:href="#DejaVuSans-Bold-20" x="1922.021484"/>
     <use xlink:href="#DejaVuSans-Bold-35" x="1956.835938"/>
     <use xlink:href="#DejaVuSans-Bold-34" x="2026.416016"/>
     <use xlink:href="#DejaVuSans-Bold-2013" x="2095.996094"/>
     <use xlink:href="#DejaVuSans-Bold-36" x="2145.996094"/>
     <use xlink:href="#DejaVuSans-Bold-35" x="2215.576172"/>
     <use xlink:href="#DejaVuSans-Bold-25" x="2285.15625"/>
    </g>
   </g>
   <g id="legend_1">
    <g id="line2d_35">
     <path d="M 71.37 155.143541 
L 77.67 155.143541 
L 83.97 155.143541 
" style="fill: none; stroke: #4a3aa7; stroke-width: 2.2; stroke-linecap: square"/>
     <g>
      <use xlink:href="#m13f4dc4efd" x="77.67" y="155.143541" style="fill: #4a3aa7; stroke: #4a3aa7"/>
     </g>
    </g>
    <g id="text_29">
     <!-- combined-area capture (residents of the four areas attending Bear Creek or Mesa) -->
     <g style="fill: #0b0b0b" transform="translate(89.01 157.348541) scale(0.063 -0.063)">
      <defs>
       <path id="DejaVuSans-6d" d="M 3328 2828 
Q 3544 3216 3844 3400 
Q 4144 3584 4550 3584 
Q 5097 3584 5394 3201 
Q 5691 2819 5691 2113 
L 5691 0 
L 5113 0 
L 5113 2094 
Q 5113 2597 4934 2840 
Q 4756 3084 4391 3084 
Q 3944 3084 3684 2787 
Q 3425 2491 3425 1978 
L 3425 0 
L 2847 0 
L 2847 2094 
Q 2847 2600 2669 2842 
Q 2491 3084 2119 3084 
Q 1678 3084 1418 2786 
Q 1159 2488 1159 1978 
L 1159 0 
L 581 0 
L 581 3500 
L 1159 3500 
L 1159 2956 
Q 1356 3278 1631 3431 
Q 1906 3584 2284 3584 
Q 2666 3584 2933 3390 
Q 3200 3197 3328 2828 
z
" transform="scale(0.015625)"/>
       <path id="DejaVuSans-62" d="M 3116 1747 
Q 3116 2381 2855 2742 
Q 2594 3103 2138 3103 
Q 1681 3103 1420 2742 
Q 1159 2381 1159 1747 
Q 1159 1113 1420 752 
Q 1681 391 2138 391 
Q 2594 391 2855 752 
Q 3116 1113 3116 1747 
z
M 1159 2969 
Q 1341 3281 1617 3432 
Q 1894 3584 2278 3584 
Q 2916 3584 3314 3078 
Q 3713 2572 3713 1747 
Q 3713 922 3314 415 
Q 2916 -91 2278 -91 
Q 1894 -91 1617 61 
Q 1341 213 1159 525 
L 1159 0 
L 581 0 
L 581 4863 
L 1159 4863 
L 1159 2969 
z
" transform="scale(0.015625)"/>
       <path id="DejaVuSans-28" d="M 1984 4856 
Q 1566 4138 1362 3434 
Q 1159 2731 1159 2009 
Q 1159 1288 1364 580 
Q 1569 -128 1984 -844 
L 1484 -844 
Q 1016 -109 783 600 
Q 550 1309 550 2009 
Q 550 2706 781 3412 
Q 1013 4119 1484 4856 
L 1984 4856 
z
" transform="scale(0.015625)"/>
       <path id="DejaVuSans-42" d="M 1259 2228 
L 1259 519 
L 2272 519 
Q 2781 519 3026 730 
Q 3272 941 3272 1375 
Q 3272 1813 3026 2020 
Q 2781 2228 2272 2228 
L 1259 2228 
z
M 1259 4147 
L 1259 2741 
L 2194 2741 
Q 2656 2741 2882 2914 
Q 3109 3088 3109 3444 
Q 3109 3797 2882 3972 
Q 2656 4147 2194 4147 
L 1259 4147 
z
M 628 4666 
L 2241 4666 
Q 2963 4666 3353 4366 
Q 3744 4066 3744 3513 
Q 3744 3084 3544 2831 
Q 3344 2578 2956 2516 
Q 3422 2416 3680 2098 
Q 3938 1781 3938 1306 
Q 3938 681 3513 340 
Q 3088 0 2303 0 
L 628 0 
L 628 4666 
z
" transform="scale(0.015625)"/>
       <path id="DejaVuSans-43" d="M 4122 4306 
L 4122 3641 
Q 3803 3938 3442 4084 
Q 3081 4231 2675 4231 
Q 1875 4231 1450 3742 
Q 1025 3253 1025 2328 
Q 1025 1406 1450 917 
Q 1875 428 2675 428 
Q 3081 428 3442 575 
Q 3803 722 4122 1019 
L 4122 359 
Q 3791 134 3420 21 
Q 3050 -91 2638 -91 
Q 1578 -91 968 557 
Q 359 1206 359 2328 
Q 359 3453 968 4101 
Q 1578 4750 2638 4750 
Q 3056 4750 3426 4639 
Q 3797 4528 4122 4306 
z
" transform="scale(0.015625)"/>
       <path id="DejaVuSans-6b" d="M 581 4863 
L 1159 4863 
L 1159 1991 
L 2875 3500 
L 3609 3500 
L 1753 1863 
L 3688 0 
L 2938 0 
L 1159 1709 
L 1159 0 
L 581 0 
L 581 4863 
z
" transform="scale(0.015625)"/>
       <path id="DejaVuSans-4d" d="M 628 4666 
L 1569 4666 
L 2759 1491 
L 3956 4666 
L 4897 4666 
L 4897 0 
L 4281 0 
L 4281 4097 
L 3078 897 
L 2444 897 
L 1241 4097 
L 1241 0 
L 628 0 
L 628 4666 
z
" transform="scale(0.015625)"/>
       <path id="DejaVuSans-29" d="M 513 4856 
L 1013 4856 
Q 1481 4119 1714 3412 
Q 1947 2706 1947 2009 
Q 1947 1309 1714 600 
Q 1481 -109 1013 -844 
L 513 -844 
Q 928 -128 1133 580 
Q 1338 1288 1338 2009 
Q 1338 2731 1133 3434 
Q 928 4138 513 4856 
z
" transform="scale(0.015625)"/>
      </defs>
      <use xlink:href="#DejaVuSans-63"/>
      <use xlink:href="#DejaVuSans-6f" x="54.980469"/>
      <use xlink:href="#DejaVuSans-6d" x="116.162109"/>
      <use xlink:href="#DejaVuSans-62" x="213.574219"/>
      <use xlink:href="#DejaVuSans-69" x="277.050781"/>
      <use xlink:href="#DejaVuSans-6e" x="304.833984"/>
      <use xlink:href="#DejaVuSans-65" x="368.212891"/>
      <use xlink:href="#DejaVuSans-64" x="429.736328"/>
      <use xlink:href="#DejaVuSans-2d" x="493.212891"/>
      <use xlink:href="#DejaVuSans-61" x="529.296875"/>
      <use xlink:href="#DejaVuSans-72" x="590.576172"/>
      <use xlink:href="#DejaVuSans-65" x="629.439453"/>
      <use xlink:href="#DejaVuSans-61" x="690.962891"/>
      <use xlink:href="#DejaVuSans-20" x="752.242188"/>
      <use xlink:href="#DejaVuSans-63" x="784.029297"/>
      <use xlink:href="#DejaVuSans-61" x="839.009766"/>
      <use xlink:href="#DejaVuSans-70" x="900.289062"/>
      <use xlink:href="#DejaVuSans-74" x="963.765625"/>
      <use xlink:href="#DejaVuSans-75" x="1002.974609"/>
      <use xlink:href="#DejaVuSans-72" x="1066.353516"/>
      <use xlink:href="#DejaVuSans-65" x="1105.216797"/>
      <use xlink:href="#DejaVuSans-20" x="1166.740234"/>
      <use xlink:href="#DejaVuSans-28" x="1198.527344"/>
      <use xlink:href="#DejaVuSans-72" x="1237.541016"/>
      <use xlink:href="#DejaVuSans-65" x="1276.404297"/>
      <use xlink:href="#DejaVuSans-73" x="1337.927734"/>
      <use xlink:href="#DejaVuSans-69" x="1390.027344"/>
      <use xlink:href="#DejaVuSans-64" x="1417.810547"/>
      <use xlink:href="#DejaVuSans-65" x="1481.287109"/>
      <use xlink:href="#DejaVuSans-6e" x="1542.810547"/>
      <use xlink:href="#DejaVuSans-74" x="1606.189453"/>
      <use xlink:href="#DejaVuSans-73" x="1645.398438"/>
      <use xlink:href="#DejaVuSans-20" x="1697.498047"/>
      <use xlink:href="#DejaVuSans-6f" x="1729.285156"/>
      <use xlink:href="#DejaVuSans-66" x="1790.466797"/>
      <use xlink:href="#DejaVuSans-20" x="1825.671875"/>
      <use xlink:href="#DejaVuSans-74" x="1857.458984"/>
      <use xlink:href="#DejaVuSans-68" x="1896.667969"/>
      <use xlink:href="#DejaVuSans-65" x="1960.046875"/>
      <use xlink:href="#DejaVuSans-20" x="2021.570312"/>
      <use xlink:href="#DejaVuSans-66" x="2053.357422"/>
      <use xlink:href="#DejaVuSans-6f" x="2088.5625"/>
      <use xlink:href="#DejaVuSans-75" x="2149.744141"/>
      <use xlink:href="#DejaVuSans-72" x="2213.123047"/>
      <use xlink:href="#DejaVuSans-20" x="2254.236328"/>
      <use xlink:href="#DejaVuSans-61" x="2286.023438"/>
      <use xlink:href="#DejaVuSans-72" x="2347.302734"/>
      <use xlink:href="#DejaVuSans-65" x="2386.166016"/>
      <use xlink:href="#DejaVuSans-61" x="2447.689453"/>
      <use xlink:href="#DejaVuSans-73" x="2508.96875"/>
      <use xlink:href="#DejaVuSans-20" x="2561.068359"/>
      <use xlink:href="#DejaVuSans-61" x="2592.855469"/>
      <use xlink:href="#DejaVuSans-74" x="2654.134766"/>
      <use xlink:href="#DejaVuSans-74" x="2693.34375"/>
      <use xlink:href="#DejaVuSans-65" x="2732.552734"/>
      <use xlink:href="#DejaVuSans-6e" x="2794.076172"/>
      <use xlink:href="#DejaVuSans-64" x="2857.455078"/>
      <use xlink:href="#DejaVuSans-69" x="2920.931641"/>
      <use xlink:href="#DejaVuSans-6e" x="2948.714844"/>
      <use xlink:href="#DejaVuSans-67" x="3012.09375"/>
      <use xlink:href="#DejaVuSans-20" x="3075.570312"/>
      <use xlink:href="#DejaVuSans-42" x="3107.357422"/>
      <use xlink:href="#DejaVuSans-65" x="3175.960938"/>
      <use xlink:href="#DejaVuSans-61" x="3237.484375"/>
      <use xlink:href="#DejaVuSans-72" x="3298.763672"/>
      <use xlink:href="#DejaVuSans-20" x="3339.876953"/>
      <use xlink:href="#DejaVuSans-43" x="3371.664062"/>
      <use xlink:href="#DejaVuSans-72" x="3441.488281"/>
      <use xlink:href="#DejaVuSans-65" x="3480.351562"/>
      <use xlink:href="#DejaVuSans-65" x="3541.875"/>
      <use xlink:href="#DejaVuSans-6b" x="3603.398438"/>
      <use xlink:href="#DejaVuSans-20" x="3661.308594"/>
      <use xlink:href="#DejaVuSans-6f" x="3693.095703"/>
      <use xlink:href="#DejaVuSans-72" x="3754.277344"/>
      <use xlink:href="#DejaVuSans-20" x="3795.390625"/>
      <use xlink:href="#DejaVuSans-4d" x="3827.177734"/>
      <use xlink:href="#DejaVuSans-65" x="3913.457031"/>
      <use xlink:href="#DejaVuSans-73" x="3974.980469"/>
      <use xlink:href="#DejaVuSans-61" x="4027.080078"/>
      <use xlink:href="#DejaVuSans-29" x="4088.359375"/>
     </g>
    </g>
    <g id="line2d_36">
     <path d="M 71.37 164.390759 
L 77.67 164.390759 
L 83.97 164.390759 
" style="fill: none; stroke: #c9c8c3; stroke-width: 1.6; stroke-linecap: square"/>
     <g>
      <use xlink:href="#m0df9de9679" x="77.67" y="164.390759" style="fill: #c9c8c3; stroke: #c9c8c3"/>
     </g>
    </g>
    <g id="text_30">
     <!-- own-school capture (matrix 'attending neighborhood school') -->
     <g style="fill: #0b0b0b" transform="translate(89.01 166.595759) scale(0.063 -0.063)">
      <defs>
       <path id="DejaVuSans-77" d="M 269 3500 
L 844 3500 
L 1563 769 
L 2278 3500 
L 2956 3500 
L 3675 769 
L 4391 3500 
L 4966 3500 
L 4050 0 
L 3372 0 
L 2619 2869 
L 1863 0 
L 1184 0 
L 269 3500 
z
" transform="scale(0.015625)"/>
      </defs>
      <use xlink:href="#DejaVuSans-6f"/>
      <use xlink:href="#DejaVuSans-77" x="61.181641"/>
      <use xlink:href="#DejaVuSans-6e" x="142.96875"/>
      <use xlink:href="#DejaVuSans-2d" x="206.347656"/>
      <use xlink:href="#DejaVuSans-73" x="242.431641"/>
      <use xlink:href="#DejaVuSans-63" x="294.53125"/>
      <use xlink:href="#DejaVuSans-68" x="349.511719"/>
      <use xlink:href="#DejaVuSans-6f" x="412.890625"/>
      <use xlink:href="#DejaVuSans-6f" x="474.072266"/>
      <use xlink:href="#DejaVuSans-6c" x="535.253906"/>
      <use xlink:href="#DejaVuSans-20" x="563.037109"/>
      <use xlink:href="#DejaVuSans-63" x="594.824219"/>
      <use xlink:href="#DejaVuSans-61" x="649.804688"/>
      <use xlink:href="#DejaVuSans-70" x="711.083984"/>
      <use xlink:href="#DejaVuSans-74" x="774.560547"/>
      <use xlink:href="#DejaVuSans-75" x="813.769531"/>
      <use xlink:href="#DejaVuSans-72" x="877.148438"/>
      <use xlink:href="#DejaVuSans-65" x="916.011719"/>
      <use xlink:href="#DejaVuSans-20" x="977.535156"/>
      <use xlink:href="#DejaVuSans-28" x="1009.322266"/>
      <use xlink:href="#DejaVuSans-6d" x="1048.335938"/>
      <use xlink:href="#DejaVuSans-61" x="1145.748047"/>
      <use xlink:href="#DejaVuSans-74" x="1207.027344"/>
      <use xlink:href="#DejaVuSans-72" x="1246.236328"/>
      <use xlink:href="#DejaVuSans-69" x="1287.349609"/>
      <use xlink:href="#DejaVuSans-78" x="1315.132812"/>
      <use xlink:href="#DejaVuSans-20" x="1374.3125"/>
      <use xlink:href="#DejaVuSans-27" x="1406.099609"/>
      <use xlink:href="#DejaVuSans-61" x="1433.589844"/>
      <use xlink:href="#DejaVuSans-74" x="1494.869141"/>
      <use xlink:href="#DejaVuSans-74" x="1534.078125"/>
      <use xlink:href="#DejaVuSans-65" x="1573.287109"/>
      <use xlink:href="#DejaVuSans-6e" x="1634.810547"/>
      <use xlink:href="#DejaVuSans-64" x="1698.189453"/>
      <use xlink:href="#DejaVuSans-69" x="1761.666016"/>
      <use xlink:href="#DejaVuSans-6e" x="1789.449219"/>
      <use xlink:href="#DejaVuSans-67" x="1852.828125"/>
      <use xlink:href="#DejaVuSans-20" x="1916.304688"/>
      <use xlink:href="#DejaVuSans-6e" x="1948.091797"/>
      <use xlink:href="#DejaVuSans-65" x="2011.470703"/>
      <use xlink:href="#DejaVuSans-69" x="2072.994141"/>
      <use xlink:href="#DejaVuSans-67" x="2100.777344"/>
      <use xlink:href="#DejaVuSans-68" x="2164.253906"/>
      <use xlink:href="#DejaVuSans-62" x="2227.632812"/>
      <use xlink:href="#DejaVuSans-6f" x="2291.109375"/>
      <use xlink:href="#DejaVuSans-72" x="2352.291016"/>
      <use xlink:href="#DejaVuSans-68" x="2391.654297"/>
      <use xlink:href="#DejaVuSans-6f" x="2455.033203"/>
      <use xlink:href="#DejaVuSans-6f" x="2516.214844"/>
      <use xlink:href="#DejaVuSans-64" x="2577.396484"/>
      <use xlink:href="#DejaVuSans-20" x="2640.873047"/>
      <use xlink:href="#DejaVuSans-73" x="2672.660156"/>
      <use xlink:href="#DejaVuSans-63" x="2724.759766"/>
      <use xlink:href="#DejaVuSans-68" x="2779.740234"/>
      <use xlink:href="#DejaVuSans-6f" x="2843.119141"/>
      <use xlink:href="#DejaVuSans-6f" x="2904.300781"/>
      <use xlink:href="#DejaVuSans-6c" x="2965.482422"/>
      <use xlink:href="#DejaVuSans-27" x="2993.265625"/>
      <use xlink:href="#DejaVuSans-29" x="3020.755859"/>
     </g>
    </g>
   </g>
  </g>
  <g id="text_31">
   <!-- Source: BVSD Enrollment Pattern Matrices 2017-18 to 2025-26 (elementary), bvsd.org planning-and-engineering -->
   <g style="fill: #52514e" transform="translate(7.2 202.850947) scale(0.065 -0.065)">
    <defs>
     <path id="DejaVuSans-53" d="M 3425 4513 
L 3425 3897 
Q 3066 4069 2747 4153 
Q 2428 4238 2131 4238 
Q 1616 4238 1336 4038 
Q 1056 3838 1056 3469 
Q 1056 3159 1242 3001 
Q 1428 2844 1947 2747 
L 2328 2669 
Q 3034 2534 3370 2195 
Q 3706 1856 3706 1288 
Q 3706 609 3251 259 
Q 2797 -91 1919 -91 
Q 1588 -91 1214 -16 
Q 841 59 441 206 
L 441 856 
Q 825 641 1194 531 
Q 1563 422 1919 422 
Q 2459 422 2753 634 
Q 3047 847 3047 1241 
Q 3047 1584 2836 1778 
Q 2625 1972 2144 2069 
L 1759 2144 
Q 1053 2284 737 2584 
Q 422 2884 422 3419 
Q 422 4038 858 4394 
Q 1294 4750 2059 4750 
Q 2388 4750 2728 4690 
Q 3069 4631 3425 4513 
z
" transform="scale(0.015625)"/>
     <path id="DejaVuSans-56" d="M 1831 0 
L 50 4666 
L 709 4666 
L 2188 738 
L 3669 4666 
L 4325 4666 
L 2547 0 
L 1831 0 
z
" transform="scale(0.015625)"/>
     <path id="DejaVuSans-44" d="M 1259 4147 
L 1259 519 
L 2022 519 
Q 2988 519 3436 956 
Q 3884 1394 3884 2338 
Q 3884 3275 3436 3711 
Q 2988 4147 2022 4147 
L 1259 4147 
z
M 628 4666 
L 1925 4666 
Q 3281 4666 3915 4102 
Q 4550 3538 4550 2338 
Q 4550 1131 3912 565 
Q 3275 0 1925 0 
L 628 0 
L 628 4666 
z
" transform="scale(0.015625)"/>
     <path id="DejaVuSans-45" d="M 628 4666 
L 3578 4666 
L 3578 4134 
L 1259 4134 
L 1259 2753 
L 3481 2753 
L 3481 2222 
L 1259 2222 
L 1259 531 
L 3634 531 
L 3634 0 
L 628 0 
L 628 4666 
z
" transform="scale(0.015625)"/>
     <path id="DejaVuSans-50" d="M 1259 4147 
L 1259 2394 
L 2053 2394 
Q 2494 2394 2734 2622 
Q 2975 2850 2975 3272 
Q 2975 3691 2734 3919 
Q 2494 4147 2053 4147 
L 1259 4147 
z
M 628 4666 
L 2053 4666 
Q 2838 4666 3239 4311 
Q 3641 3956 3641 3272 
Q 3641 2581 3239 2228 
Q 2838 1875 2053 1875 
L 1259 1875 
L 1259 0 
L 628 0 
L 628 4666 
z
" transform="scale(0.015625)"/>
     <path id="DejaVuSans-76" d="M 191 3500 
L 800 3500 
L 1894 563 
L 2988 3500 
L 3597 3500 
L 2284 0 
L 1503 0 
L 191 3500 
z
" transform="scale(0.015625)"/>
     <path id="DejaVuSans-2e" d="M 684 794 
L 1344 794 
L 1344 0 
L 684 0 
L 684 794 
z
" transform="scale(0.015625)"/>
    </defs>
    <use xlink:href="#DejaVuSans-53"/>
    <use xlink:href="#DejaVuSans-6f" x="63.476562"/>
    <use xlink:href="#DejaVuSans-75" x="124.658203"/>
    <use xlink:href="#DejaVuSans-72" x="188.037109"/>
    <use xlink:href="#DejaVuSans-63" x="226.900391"/>
    <use xlink:href="#DejaVuSans-65" x="281.880859"/>
    <use xlink:href="#DejaVuSans-3a" x="343.404297"/>
    <use xlink:href="#DejaVuSans-20" x="377.095703"/>
    <use xlink:href="#DejaVuSans-42" x="408.882812"/>
    <use xlink:href="#DejaVuSans-56" x="474.361328"/>
    <use xlink:href="#DejaVuSans-53" x="542.769531"/>
    <use xlink:href="#DejaVuSans-44" x="606.246094"/>
    <use xlink:href="#DejaVuSans-20" x="683.248047"/>
    <use xlink:href="#DejaVuSans-45" x="715.035156"/>
    <use xlink:href="#DejaVuSans-6e" x="778.21875"/>
    <use xlink:href="#DejaVuSans-72" x="841.597656"/>
    <use xlink:href="#DejaVuSans-6f" x="880.460938"/>
    <use xlink:href="#DejaVuSans-6c" x="941.642578"/>
    <use xlink:href="#DejaVuSans-6c" x="969.425781"/>
    <use xlink:href="#DejaVuSans-6d" x="997.208984"/>
    <use xlink:href="#DejaVuSans-65" x="1094.621094"/>
    <use xlink:href="#DejaVuSans-6e" x="1156.144531"/>
    <use xlink:href="#DejaVuSans-74" x="1219.523438"/>
    <use xlink:href="#DejaVuSans-20" x="1258.732422"/>
    <use xlink:href="#DejaVuSans-50" x="1290.519531"/>
    <use xlink:href="#DejaVuSans-61" x="1346.322266"/>
    <use xlink:href="#DejaVuSans-74" x="1407.601562"/>
    <use xlink:href="#DejaVuSans-74" x="1446.810547"/>
    <use xlink:href="#DejaVuSans-65" x="1486.019531"/>
    <use xlink:href="#DejaVuSans-72" x="1547.542969"/>
    <use xlink:href="#DejaVuSans-6e" x="1586.90625"/>
    <use xlink:href="#DejaVuSans-20" x="1650.285156"/>
    <use xlink:href="#DejaVuSans-4d" x="1682.072266"/>
    <use xlink:href="#DejaVuSans-61" x="1768.351562"/>
    <use xlink:href="#DejaVuSans-74" x="1829.630859"/>
    <use xlink:href="#DejaVuSans-72" x="1868.839844"/>
    <use xlink:href="#DejaVuSans-69" x="1909.953125"/>
    <use xlink:href="#DejaVuSans-63" x="1937.736328"/>
    <use xlink:href="#DejaVuSans-65" x="1992.716797"/>
    <use xlink:href="#DejaVuSans-73" x="2054.240234"/>
    <use xlink:href="#DejaVuSans-20" x="2106.339844"/>
    <use xlink:href="#DejaVuSans-32" x="2138.126953"/>
    <use xlink:href="#DejaVuSans-30" x="2201.75"/>
    <use xlink:href="#DejaVuSans-31" x="2265.373047"/>
    <use xlink:href="#DejaVuSans-37" x="2328.996094"/>
    <use xlink:href="#DejaVuSans-2d" x="2392.619141"/>
    <use xlink:href="#DejaVuSans-31" x="2428.703125"/>
    <use xlink:href="#DejaVuSans-38" x="2492.326172"/>
    <use xlink:href="#DejaVuSans-20" x="2555.949219"/>
    <use xlink:href="#DejaVuSans-74" x="2587.736328"/>
    <use xlink:href="#DejaVuSans-6f" x="2626.945312"/>
    <use xlink:href="#DejaVuSans-20" x="2688.126953"/>
    <use xlink:href="#DejaVuSans-32" x="2719.914062"/>
    <use xlink:href="#DejaVuSans-30" x="2783.537109"/>
    <use xlink:href="#DejaVuSans-32" x="2847.160156"/>
    <use xlink:href="#DejaVuSans-35" x="2910.783203"/>
    <use xlink:href="#DejaVuSans-2d" x="2974.40625"/>
    <use xlink:href="#DejaVuSans-32" x="3010.490234"/>
    <use xlink:href="#DejaVuSans-36" x="3074.113281"/>
    <use xlink:href="#DejaVuSans-20" x="3137.736328"/>
    <use xlink:href="#DejaVuSans-28" x="3169.523438"/>
    <use xlink:href="#DejaVuSans-65" x="3208.537109"/>
    <use xlink:href="#DejaVuSans-6c" x="3270.060547"/>
    <use xlink:href="#DejaVuSans-65" x="3297.84375"/>
    <use xlink:href="#DejaVuSans-6d" x="3359.367188"/>
    <use xlink:href="#DejaVuSans-65" x="3456.779297"/>
    <use xlink:href="#DejaVuSans-6e" x="3518.302734"/>
    <use xlink:href="#DejaVuSans-74" x="3581.681641"/>
    <use xlink:href="#DejaVuSans-61" x="3620.890625"/>
    <use xlink:href="#DejaVuSans-72" x="3682.169922"/>
    <use xlink:href="#DejaVuSans-79" x="3723.283203"/>
    <use xlink:href="#DejaVuSans-29" x="3782.462891"/>
    <use xlink:href="#DejaVuSans-2c" x="3821.476562"/>
    <use xlink:href="#DejaVuSans-20" x="3853.263672"/>
    <use xlink:href="#DejaVuSans-62" x="3885.050781"/>
    <use xlink:href="#DejaVuSans-76" x="3948.527344"/>
    <use xlink:href="#DejaVuSans-73" x="4007.707031"/>
    <use xlink:href="#DejaVuSans-64" x="4059.806641"/>
    <use xlink:href="#DejaVuSans-2e" x="4123.283203"/>
    <use xlink:href="#DejaVuSans-6f" x="4155.070312"/>
    <use xlink:href="#DejaVuSans-72" x="4216.251953"/>
    <use xlink:href="#DejaVuSans-67" x="4255.615234"/>
    <use xlink:href="#DejaVuSans-20" x="4319.091797"/>
    <use xlink:href="#DejaVuSans-70" x="4350.878906"/>
    <use xlink:href="#DejaVuSans-6c" x="4414.355469"/>
    <use xlink:href="#DejaVuSans-61" x="4442.138672"/>
    <use xlink:href="#DejaVuSans-6e" x="4503.417969"/>
    <use xlink:href="#DejaVuSans-6e" x="4566.796875"/>
    <use xlink:href="#DejaVuSans-69" x="4630.175781"/>
    <use xlink:href="#DejaVuSans-6e" x="4657.958984"/>
    <use xlink:href="#DejaVuSans-67" x="4721.337891"/>
    <use xlink:href="#DejaVuSans-2d" x="4784.814453"/>
    <use xlink:href="#DejaVuSans-61" x="4820.898438"/>
    <use xlink:href="#DejaVuSans-6e" x="4882.177734"/>
    <use xlink:href="#DejaVuSans-64" x="4945.556641"/>
    <use xlink:href="#DejaVuSans-2d" x="5009.033203"/>
    <use xlink:href="#DejaVuSans-65" x="5045.117188"/>
    <use xlink:href="#DejaVuSans-6e" x="5106.640625"/>
    <use xlink:href="#DejaVuSans-67" x="5170.019531"/>
    <use xlink:href="#DejaVuSans-69" x="5233.496094"/>
    <use xlink:href="#DejaVuSans-6e" x="5261.279297"/>
    <use xlink:href="#DejaVuSans-65" x="5324.658203"/>
    <use xlink:href="#DejaVuSans-65" x="5386.181641"/>
    <use xlink:href="#DejaVuSans-72" x="5447.705078"/>
    <use xlink:href="#DejaVuSans-69" x="5488.818359"/>
    <use xlink:href="#DejaVuSans-6e" x="5516.601562"/>
    <use xlink:href="#DejaVuSans-67" x="5579.980469"/>
   </g>
   <!-- page; parsed by scripts/parse_oe_matrices.py -->
   <g style="fill: #52514e" transform="translate(7.2 210.129525) scale(0.065 -0.065)">
    <defs>
     <path id="DejaVuSans-3b" d="M 750 3309 
L 1409 3309 
L 1409 2516 
L 750 2516 
L 750 3309 
z
M 750 794 
L 1409 794 
L 1409 256 
L 897 -744 
L 494 -744 
L 750 256 
L 750 794 
z
" transform="scale(0.015625)"/>
     <path id="DejaVuSans-2f" d="M 1625 4666 
L 2156 4666 
L 531 -594 
L 0 -594 
L 1625 4666 
z
" transform="scale(0.015625)"/>
     <path id="DejaVuSans-5f" d="M 3263 -1063 
L 3263 -1509 
L -63 -1509 
L -63 -1063 
L 3263 -1063 
z
" transform="scale(0.015625)"/>
    </defs>
    <use xlink:href="#DejaVuSans-70"/>
    <use xlink:href="#DejaVuSans-61" x="63.476562"/>
    <use xlink:href="#DejaVuSans-67" x="124.755859"/>
    <use xlink:href="#DejaVuSans-65" x="188.232422"/>
    <use xlink:href="#DejaVuSans-3b" x="249.755859"/>
    <use xlink:href="#DejaVuSans-20" x="283.447266"/>
    <use xlink:href="#DejaVuSans-70" x="315.234375"/>
    <use xlink:href="#DejaVuSans-61" x="378.710938"/>
    <use xlink:href="#DejaVuSans-72" x="439.990234"/>
    <use xlink:href="#DejaVuSans-73" x="481.103516"/>
    <use xlink:href="#DejaVuSans-65" x="533.203125"/>
    <use xlink:href="#DejaVuSans-64" x="594.726562"/>
    <use xlink:href="#DejaVuSans-20" x="658.203125"/>
    <use xlink:href="#DejaVuSans-62" x="689.990234"/>
    <use xlink:href="#DejaVuSans-79" x="753.466797"/>
    <use xlink:href="#DejaVuSans-20" x="812.646484"/>
    <use xlink:href="#DejaVuSans-73" x="844.433594"/>
    <use xlink:href="#DejaVuSans-63" x="896.533203"/>
    <use xlink:href="#DejaVuSans-72" x="951.513672"/>
    <use xlink:href="#DejaVuSans-69" x="992.626953"/>
    <use xlink:href="#DejaVuSans-70" x="1020.410156"/>
    <use xlink:href="#DejaVuSans-74" x="1083.886719"/>
    <use xlink:href="#DejaVuSans-73" x="1123.095703"/>
    <use xlink:href="#DejaVuSans-2f" x="1175.195312"/>
    <use xlink:href="#DejaVuSans-70" x="1208.886719"/>
    <use xlink:href="#DejaVuSans-61" x="1272.363281"/>
    <use xlink:href="#DejaVuSans-72" x="1333.642578"/>
    <use xlink:href="#DejaVuSans-73" x="1374.755859"/>
    <use xlink:href="#DejaVuSans-65" x="1426.855469"/>
    <use xlink:href="#DejaVuSans-5f" x="1488.378906"/>
    <use xlink:href="#DejaVuSans-6f" x="1538.378906"/>
    <use xlink:href="#DejaVuSans-65" x="1599.560547"/>
    <use xlink:href="#DejaVuSans-5f" x="1661.083984"/>
    <use xlink:href="#DejaVuSans-6d" x="1711.083984"/>
    <use xlink:href="#DejaVuSans-61" x="1808.496094"/>
    <use xlink:href="#DejaVuSans-74" x="1869.775391"/>
    <use xlink:href="#DejaVuSans-72" x="1908.984375"/>
    <use xlink:href="#DejaVuSans-69" x="1950.097656"/>
    <use xlink:href="#DejaVuSans-63" x="1977.880859"/>
    <use xlink:href="#DejaVuSans-65" x="2032.861328"/>
    <use xlink:href="#DejaVuSans-73" x="2094.384766"/>
    <use xlink:href="#DejaVuSans-2e" x="2146.484375"/>
    <use xlink:href="#DejaVuSans-70" x="2178.271484"/>
    <use xlink:href="#DejaVuSans-79" x="2241.748047"/>
   </g>
  </g>
 </g>
 <defs>
  <clipPath id="p259fad2c13">
   <rect x="65.7" y="29.431962" width="362.7" height="144.144"/>
  </clipPath>
 </defs>
</svg>
